<svg width="20" height="20" viewBox="0 0 20 20" fill="none" xmlns="http://www.w3.org/2000/svg">
<path d="M15.4217 6.63422C15.0151 6.81494 14.5859 6.92789 14.1341 6.99566C14.5859 6.72458 14.9473 6.29537 15.1055 5.7758C14.6763 6.02429 14.2019 6.20501 13.6823 6.31796C13.2757 5.88875 12.6884 5.61768 12.0558 5.61768C10.836 5.61768 9.84204 6.61163 9.84204 7.83148C9.84204 8.0122 9.86463 8.17033 9.90981 8.32846C8.08004 8.2381 6.43098 7.35709 5.32408 6.0017C5.14336 6.34055 5.03041 6.70199 5.03041 7.1086C5.03041 7.87666 5.41444 8.55435 6.02436 8.96097C5.66293 8.93838 5.32408 8.84802 5.00782 8.68989V8.71248C5.00782 9.79679 5.77587 10.7004 6.79242 10.9037C6.6117 10.9489 6.40839 10.9715 6.20508 10.9715C6.06954 10.9715 5.91141 10.9489 5.77587 10.9263C6.06954 11.8073 6.88278 12.4624 7.85414 12.4624C7.08608 13.0497 6.13731 13.4112 5.09818 13.4112C4.91746 13.4112 4.73674 13.4112 4.57861 13.3886C5.57257 14.0211 6.72465 14.3825 7.98968 14.3825C12.0784 14.3825 14.3148 10.9941 14.3148 8.05738C14.3148 7.96702 14.3148 7.85407 14.3148 7.76371C14.744 7.47004 15.1281 7.08601 15.4217 6.63422Z" fill="white"/>
</svg>
