<svg width="20" height="20" viewBox="0 0 20 20" fill="none" xmlns="http://www.w3.org/2000/svg">
<path d="M9.99991 4.61078C11.7551 4.61078 11.9629 4.61735 12.6563 4.64897C13.0732 4.65407 13.4861 4.73062 13.8771 4.87529C14.1607 4.98464 14.4182 5.15216 14.6331 5.36706C14.848 5.58196 15.0155 5.83947 15.1248 6.12303C15.2695 6.51404 15.3461 6.92696 15.3512 7.34385C15.3825 8.03721 15.3894 8.24506 15.3894 10.0002C15.3894 11.7554 15.3828 11.9632 15.3512 12.6566C15.3461 13.0735 15.2695 13.4864 15.1248 13.8774C15.0155 14.161 14.848 14.4185 14.6331 14.6334C14.4182 14.8483 14.1607 15.0158 13.8771 15.1252C13.4861 15.2698 13.0732 15.3464 12.6563 15.3515C11.9632 15.3828 11.7554 15.3897 9.99991 15.3897C8.24444 15.3897 8.03658 15.3831 7.34353 15.3515C6.92665 15.3464 6.51373 15.2698 6.12271 15.1252C5.83916 15.0158 5.58164 14.8483 5.36675 14.6334C5.15185 14.4185 4.98433 14.161 4.87497 13.8774C4.7303 13.4864 4.65376 13.0735 4.64865 12.6566C4.61735 11.9632 4.61046 11.7554 4.61046 10.0002C4.61046 8.24506 4.61704 8.03721 4.64865 7.34385C4.65376 6.92696 4.7303 6.51404 4.87497 6.12303C4.98433 5.83947 5.15185 5.58196 5.36675 5.36706C5.58164 5.15216 5.83916 4.98464 6.12271 4.87529C6.51373 4.73062 6.92665 4.65407 7.34353 4.64897C8.0369 4.61766 8.24475 4.61078 9.99991 4.61078V4.61078ZM9.99991 3.42627C8.21564 3.42627 7.99088 3.43378 7.28969 3.46571C6.74409 3.47656 6.20429 3.57987 5.69324 3.77123C5.25484 3.9364 4.85776 4.19525 4.5297 4.5297C4.19495 4.85788 3.93588 5.25518 3.7706 5.69386C3.57924 6.20492 3.47594 6.74472 3.46509 7.29032C3.43378 7.99088 3.42627 8.21564 3.42627 9.99991C3.42627 11.7842 3.43378 12.0089 3.46571 12.7101C3.47656 13.2557 3.57987 13.7955 3.77123 14.3066C3.93632 14.7452 4.19517 15.1425 4.5297 15.4707C4.85794 15.8053 5.25524 16.0641 5.69386 16.2292C6.20492 16.4206 6.74472 16.5239 7.29032 16.5347C7.99151 16.566 8.21532 16.5742 10.0005 16.5742C11.7857 16.5742 12.0096 16.5667 12.7108 16.5347C13.2564 16.5239 13.7962 16.4206 14.3072 16.2292C14.7438 16.06 15.1402 15.8015 15.4711 15.4704C15.8021 15.1392 16.0603 14.7426 16.2292 14.306C16.4206 13.7949 16.5239 13.2551 16.5347 12.7095C16.566 12.0089 16.5736 11.7842 16.5736 9.99991C16.5736 8.21564 16.566 7.99088 16.5341 7.28969C16.5233 6.7441 16.42 6.20429 16.2286 5.69324C16.0635 5.25461 15.8046 4.85731 15.4701 4.52908C15.1419 4.19455 14.7446 3.9357 14.306 3.7706C13.7949 3.57924 13.2551 3.47594 12.7095 3.46509C12.0089 3.43378 11.7842 3.42627 9.99991 3.42627Z" fill="white"/>
<path d="M9.99828 6.62793C9.33063 6.62793 8.67797 6.82591 8.12283 7.19684C7.5677 7.56777 7.13502 8.09499 6.87952 8.71182C6.62402 9.32865 6.55717 10.0074 6.68742 10.6622C6.81768 11.317 7.13918 11.9185 7.61129 12.3906C8.08339 12.8627 8.68489 13.1843 9.33971 13.3145C9.99454 13.4448 10.6733 13.3779 11.2901 13.1224C11.9069 12.8669 12.4342 12.4342 12.8051 11.8791C13.176 11.324 13.374 10.6713 13.374 10.0037C13.374 9.10835 13.0183 8.24973 12.3853 7.61666C11.7522 6.98359 10.8936 6.62793 9.99828 6.62793ZM9.99828 12.1949C9.5649 12.1949 9.14125 12.0664 8.78091 11.8256C8.42056 11.5848 8.13971 11.2426 7.97386 10.8422C7.80802 10.4418 7.76462 10.0012 7.84917 9.57617C7.93372 9.15111 8.14241 8.76068 8.44886 8.45423C8.75531 8.14778 9.14574 7.93909 9.5708 7.85454C9.99585 7.76999 10.4364 7.81339 10.8368 7.97923C11.2372 8.14508 11.5794 8.42593 11.8202 8.78628C12.061 9.14662 12.1895 9.57027 12.1895 10.0037C12.1895 10.5848 11.9586 11.1421 11.5477 11.5531C11.1368 11.964 10.5794 12.1949 9.99828 12.1949V12.1949Z" fill="white"/>
<path d="M13.5188 7.28129C13.9545 7.28129 14.3077 6.92811 14.3077 6.49245C14.3077 6.05679 13.9545 5.70361 13.5188 5.70361C13.0832 5.70361 12.73 6.05679 12.73 6.49245C12.73 6.92811 13.0832 7.28129 13.5188 7.28129Z" fill="white"/>
</svg>
