<svg width="20" height="20" viewBox="0 0 20 20" fill="none" xmlns="http://www.w3.org/2000/svg">
<path fill-rule="evenodd" clip-rule="evenodd" d="M9.99997 3.86475C6.51534 3.86475 3.71191 6.66817 3.71191 10.1528C3.71191 12.93 5.51973 15.288 8.00875 16.1265C8.32316 16.1789 8.42796 15.9955 8.42796 15.8121C8.42796 15.6549 8.42796 15.2618 8.42796 14.7378C6.67254 15.1308 6.30574 13.8994 6.30574 13.8994C6.01753 13.1658 5.59833 12.9824 5.59833 12.9824C5.02193 12.5894 5.65073 12.5894 5.65073 12.5894C6.27954 12.6418 6.62014 13.2444 6.62014 13.2444C7.17035 14.2138 8.08735 13.9256 8.45416 13.7684C8.50656 13.3492 8.66376 13.0872 8.84716 12.93C7.45855 12.7728 5.99133 12.2226 5.99133 9.8122C5.99133 9.13099 6.22714 8.55459 6.64634 8.13538C6.59394 7.97818 6.35814 7.34938 6.69874 6.45857C6.69874 6.45857 7.22275 6.30137 8.42796 7.11357C8.92576 6.98257 9.47597 6.90397 9.99997 6.90397C10.524 6.90397 11.0742 6.98257 11.572 7.11357C12.7772 6.30137 13.3012 6.45857 13.3012 6.45857C13.6418 7.32318 13.4322 7.95198 13.3536 8.13538C13.7466 8.58079 14.0086 9.13099 14.0086 9.8122C14.0086 12.2226 12.5414 12.7466 11.1266 12.9038C11.3624 13.0872 11.5458 13.4802 11.5458 14.0566C11.5458 14.895 11.5458 15.5762 11.5458 15.7859C11.5458 15.9431 11.6506 16.1527 11.9912 16.1003C14.4802 15.288 16.288 12.93 16.288 10.1528C16.288 6.66817 13.4846 3.86475 9.99997 3.86475Z" fill="white"/>
</svg>
