<svg width="20" height="20" viewBox="0 0 20 20" fill="none" xmlns="http://www.w3.org/2000/svg">
<path d="M7.49984 11.6667L12.4998 6.66667M7.91653 7.08333H7.92486M12.0832 11.25H12.0915M15.8332 17.5V4.16667C15.8332 3.24619 15.087 2.5 14.1665 2.5H5.83317C4.9127 2.5 4.1665 3.24619 4.1665 4.16667V17.5L7.08317 15.8333L9.99984 17.5L12.9165 15.8333L15.8332 17.5ZM8.33317 7.08333C8.33317 7.31345 8.14662 7.5 7.9165 7.5C7.68639 7.5 7.49984 7.31345 7.49984 7.08333C7.49984 6.85321 7.68639 6.66667 7.9165 6.66667C8.14662 6.66667 8.33317 6.85321 8.33317 7.08333ZM12.4998 11.25C12.4998 11.4801 12.3133 11.6667 12.0832 11.6667C11.8531 11.6667 11.6665 11.4801 11.6665 11.25C11.6665 11.0199 11.8531 10.8333 12.0832 10.8333C12.3133 10.8333 12.4998 11.0199 12.4998 11.25Z" stroke="white" stroke-width="1.5" stroke-linecap="round" stroke-linejoin="round"/>
</svg>
