<svg width="168" height="45" viewBox="0 0 168 45" fill="none" xmlns="http://www.w3.org/2000/svg">
<path d="M61.7187 33.4047H65.517L64.8727 30.4542V12.921H61.244V20.9246C60.1587 19.6698 58.6326 18.9237 56.8691 18.9237C53.2404 18.9237 50.4256 21.942 50.4256 26.3168C50.4256 30.7255 53.2404 33.7099 56.8691 33.7099C58.6665 33.7099 60.2266 32.9299 61.3118 31.6073L61.7187 33.4047ZM133.479 22.8576C134.225 22.8576 134.904 23.0611 135.514 23.502L137.244 19.6358C136.43 19.1271 135.514 18.9237 134.599 18.9237C132.971 18.9237 131.58 19.6698 130.732 21.0602L130.359 19.2628H126.629L127.239 22.0437V33.4386H130.868V24.3837C131.343 23.4341 132.259 22.8576 133.479 22.8576ZM144.094 29.9116C141.992 29.9116 140.432 28.5212 140.432 26.3507C140.432 24.1463 141.992 22.7898 144.094 22.7898C146.231 22.7898 147.757 24.1463 147.757 26.3507C147.757 28.4872 146.231 29.9116 144.094 29.9116ZM53.9526 26.3168C53.9526 24.1124 55.5126 22.7559 57.6152 22.7559C59.7518 22.7559 61.2779 24.1124 61.2779 26.3168C61.2779 28.4872 59.7518 29.8777 57.6152 29.8777C55.5126 29.9116 53.9526 28.4872 53.9526 26.3168ZM160.203 29.9116C158.1 29.9116 156.54 28.5212 156.54 26.3507C156.54 24.1463 158.1 22.7898 160.203 22.7898C162.34 22.7898 163.866 24.1463 163.866 26.3507C163.832 28.4872 162.306 29.9116 160.203 29.9116ZM74.3345 22.5524C76.1997 22.5524 77.4206 23.4341 77.8276 25.062H70.8414C71.2145 23.4002 72.4693 22.5524 74.3345 22.5524ZM117.71 22.5524C119.575 22.5524 120.796 23.4341 121.203 25.062H114.217C114.657 23.4002 115.878 22.5524 117.71 22.5524ZM100.007 33.4047H105.84L109.638 19.195H105.67L102.923 30.7255L100.143 19.2289H96.2425L100.007 33.4047ZM90.6807 33.4047H94.3095V19.195H90.6807V33.4047ZM74.8771 33.676C76.9119 33.676 78.8789 33.0995 80.5406 32.0481L79.1502 28.9281C77.8615 29.6403 76.3693 30.0133 74.911 30.0133C73.0119 30.0133 71.6893 29.2672 71.0788 27.8768H81.3207C81.4224 27.3342 81.4902 26.8594 81.4902 26.215C81.4902 21.8063 78.438 18.8898 74.4023 18.8898C70.2988 18.8898 67.3144 21.8741 67.3144 26.2829C67.2805 30.7933 70.2649 33.676 74.8771 33.676ZM167.359 26.3168C167.359 21.908 164.307 18.9237 160.203 18.9237C156.066 18.9237 153.047 21.942 153.047 26.3168C153.047 30.6916 156.1 33.7099 160.203 33.7099C164.307 33.7099 167.359 30.7255 167.359 26.3168ZM118.218 33.7099C120.253 33.7099 122.22 33.1673 123.882 32.0821L122.491 28.962C121.203 29.6742 119.711 30.0473 118.252 30.0473C116.353 30.0473 115.031 29.3012 114.42 27.9107H124.662C124.764 27.3681 124.831 26.8933 124.831 26.2489C124.831 21.8402 121.779 18.9237 117.744 18.9237C113.64 18.9237 110.656 21.908 110.656 26.3168C110.656 30.8612 113.606 33.7099 118.218 33.7099ZM144.094 33.7099C148.232 33.7099 151.25 30.6916 151.25 26.3168C151.25 21.942 148.198 18.9237 144.094 18.9237C139.957 18.9237 136.939 21.942 136.939 26.3168C136.939 30.6916 139.957 33.7099 144.094 33.7099ZM83.7963 33.4047H87.4251V12.921H83.7963V33.4047ZM92.5121 17.2619C93.7669 17.2619 94.7843 16.2445 94.7843 14.9558C94.7843 13.6671 93.8008 12.6497 92.5121 12.6497C91.2234 12.6497 90.2059 13.6671 90.2059 14.9558C90.2059 16.2445 91.1894 17.2619 92.5121 17.2619ZM30.1454 0L28.0767 19.6698L24.5497 3.08612L13.4261 5.42614L16.9192 22.0098L0.912109 25.4011L3.76083 38.6273L31.9428 44.63L38.3864 30.2168L41.4386 1.18697L30.1454 0ZM21.2262 28.5551C20.6497 29.0977 19.9036 29.0299 19.0558 28.7585C18.2418 28.4872 17.9027 27.5377 18.174 26.3168C18.4114 25.435 19.4627 25.2994 20.0392 25.2994C20.2427 25.2994 20.4462 25.3333 20.6497 25.435C21.0227 25.6046 21.6671 25.9776 21.8027 26.5203C22.0062 27.3342 21.8027 28.0125 21.2262 28.5551ZM29.3993 29.4368C28.9584 30.1829 27.8732 30.2846 26.7541 29.742C26.008 29.369 26.008 28.4872 26.1097 27.9107C26.1436 27.6055 26.2793 27.3003 26.4828 27.0629C26.7541 26.7237 27.195 26.2829 27.6697 26.2829C28.5176 26.249 29.1958 26.622 29.6028 27.3003C30.0098 27.9785 29.8063 28.7246 29.3993 29.4368Z" fill="#00CCBC"/>
</svg>
