<svg width="158" height="31" viewBox="0 0 158 31" fill="none" xmlns="http://www.w3.org/2000/svg">
<path d="M108.471 6.26291V24.769H106.907V6.26291H108.471ZM117.088 14.7788V16.1261H107.949V14.7788H117.088ZM118.372 6.26291V7.6102H107.949V6.26291H118.372Z" fill="#2C2F24"/>
<path d="M119.128 18.1088V17.6894C119.128 16.6895 119.273 15.7659 119.561 14.9186C119.849 14.0712 120.26 13.3383 120.793 12.7197C121.336 12.1011 121.984 11.6224 122.738 11.2835C123.492 10.936 124.331 10.7623 125.255 10.7623C126.187 10.7623 127.03 10.936 127.784 11.2835C128.538 11.6224 129.186 12.1011 129.729 12.7197C130.271 13.3383 130.686 14.0712 130.974 14.9186C131.262 15.7659 131.407 16.6895 131.407 17.6894V18.1088C131.407 19.1087 131.262 20.0323 130.974 20.8797C130.686 21.7186 130.271 22.4473 129.729 23.0658C129.195 23.6844 128.551 24.1674 127.797 24.5148C127.043 24.8537 126.204 25.0232 125.28 25.0232C124.348 25.0232 123.505 24.8537 122.751 24.5148C121.997 24.1674 121.349 23.6844 120.806 23.0658C120.264 22.4473 119.849 21.7186 119.561 20.8797C119.273 20.0323 119.128 19.1087 119.128 18.1088ZM120.641 17.6894V18.1088C120.641 18.863 120.743 19.579 120.946 20.2569C121.149 20.9263 121.446 21.5237 121.836 22.049C122.226 22.5659 122.709 22.9726 123.285 23.2692C123.861 23.5658 124.526 23.7141 125.28 23.7141C126.026 23.7141 126.683 23.5658 127.25 23.2692C127.826 22.9726 128.309 22.5659 128.699 22.049C129.089 21.5237 129.381 20.9263 129.576 20.2569C129.78 19.579 129.881 18.863 129.881 18.1088V17.6894C129.881 16.9437 129.78 16.2362 129.576 15.5668C129.381 14.8974 129.085 14.3 128.687 13.7747C128.297 13.2493 127.814 12.8341 127.238 12.5291C126.661 12.224 126 12.0715 125.255 12.0715C124.509 12.0715 123.848 12.224 123.272 12.5291C122.704 12.8341 122.221 13.2493 121.823 13.7747C121.433 14.3 121.137 14.8974 120.933 15.5668C120.738 16.2362 120.641 16.9437 120.641 17.6894Z" fill="#2C2F24"/>
<path d="M132.773 18.1088V17.6894C132.773 16.6895 132.917 15.7659 133.205 14.9186C133.493 14.0712 133.904 13.3383 134.438 12.7197C134.981 12.1011 135.629 11.6224 136.383 11.2835C137.137 10.936 137.976 10.7623 138.9 10.7623C139.832 10.7623 140.675 10.936 141.429 11.2835C142.183 11.6224 142.831 12.1011 143.374 12.7197C143.916 13.3383 144.331 14.0712 144.619 14.9186C144.907 15.7659 145.051 16.6895 145.051 17.6894V18.1088C145.051 19.1087 144.907 20.0323 144.619 20.8797C144.331 21.7186 143.916 22.4473 143.374 23.0658C142.84 23.6844 142.196 24.1674 141.442 24.5148C140.687 24.8537 139.849 25.0232 138.925 25.0232C137.993 25.0232 137.15 24.8537 136.396 24.5148C135.642 24.1674 134.993 23.6844 134.451 23.0658C133.909 22.4473 133.493 21.7186 133.205 20.8797C132.917 20.0323 132.773 19.1087 132.773 18.1088ZM134.286 17.6894V18.1088C134.286 18.863 134.387 19.579 134.591 20.2569C134.794 20.9263 135.091 21.5237 135.481 22.049C135.87 22.5659 136.353 22.9726 136.929 23.2692C137.506 23.5658 138.171 23.7141 138.925 23.7141C139.671 23.7141 140.327 23.5658 140.895 23.2692C141.471 22.9726 141.954 22.5659 142.344 22.049C142.734 21.5237 143.026 20.9263 143.221 20.2569C143.424 19.579 143.526 18.863 143.526 18.1088V17.6894C143.526 16.9437 143.424 16.2362 143.221 15.5668C143.026 14.8974 142.73 14.3 142.331 13.7747C141.942 13.2493 141.459 12.8341 140.882 12.5291C140.306 12.224 139.645 12.0715 138.9 12.0715C138.154 12.0715 137.493 12.224 136.917 12.5291C136.349 12.8341 135.866 13.2493 135.468 13.7747C135.078 14.3 134.781 14.8974 134.578 15.5668C134.383 16.2362 134.286 16.9437 134.286 17.6894Z" fill="#2C2F24"/>
<path d="M156.192 22.0999V5.24609H157.717V24.769H156.294L156.192 22.0999ZM146.647 18.0326V17.7657C146.647 16.698 146.77 15.7363 147.015 14.8804C147.261 14.0162 147.613 13.279 148.07 12.6689C148.536 12.0503 149.096 11.58 149.748 11.258C150.401 10.9276 151.138 10.7623 151.96 10.7623C152.765 10.7623 153.476 10.8937 154.095 11.1564C154.714 11.419 155.243 11.7961 155.684 12.2876C156.133 12.779 156.493 13.3637 156.764 14.0416C157.044 14.7195 157.247 15.4736 157.374 16.304V19.6976C157.273 20.4772 157.086 21.1932 156.815 21.8457C156.544 22.4896 156.184 23.0531 155.735 23.5361C155.286 24.0106 154.743 24.3792 154.108 24.6419C153.481 24.8961 152.756 25.0232 151.934 25.0232C151.121 25.0232 150.388 24.8537 149.735 24.5148C149.083 24.1759 148.528 23.6971 148.07 23.0785C147.613 22.4515 147.261 21.7101 147.015 20.8543C146.77 19.9984 146.647 19.0579 146.647 18.0326ZM148.172 17.7657V18.0326C148.172 18.8376 148.253 19.5832 148.414 20.2696C148.575 20.9559 148.82 21.5533 149.151 22.0617C149.481 22.5701 149.901 22.9684 150.409 23.2565C150.917 23.5446 151.519 23.6886 152.214 23.6886C153.087 23.6886 153.82 23.5234 154.413 23.1929C155.006 22.854 155.48 22.4091 155.836 21.8584C156.192 21.2991 156.451 20.689 156.612 20.0281V16.0752C156.51 15.6261 156.362 15.1685 156.167 14.7025C155.972 14.2365 155.705 13.8086 155.366 13.4188C155.036 13.0205 154.612 12.7028 154.095 12.4655C153.587 12.2198 152.968 12.0969 152.239 12.0969C151.536 12.0969 150.93 12.241 150.422 12.5291C149.913 12.8172 149.49 13.2196 149.151 13.7365C148.82 14.2449 148.575 14.8423 148.414 15.5287C148.253 16.215 148.172 16.9607 148.172 17.7657Z" fill="#2C2F24"/>
<path d="M47.5986 6.14422H53.3415C59.121 6.14422 63.7148 9.69876 63.7148 15.6926C63.7148 22.2251 59.7668 25.5639 53.3415 25.5639H47.5986V6.14422ZM50.3622 23.1232H53.2696C58.0438 23.1232 60.7002 20.8264 60.7002 15.7998C60.7002 11.278 57.6124 8.58491 53.5925 8.58491H50.3256V23.1232H50.3622ZM70.1767 8.19012H67.2327V5.24609H70.1767V8.19012ZM67.3765 11.3851H69.9977V25.6006H67.3765V11.3851ZM74.879 6.14422H80.6219C86.4014 6.14422 90.9966 9.69876 90.9966 15.6926C90.9966 22.2251 87.0486 25.5639 80.6219 25.5639H74.879V6.14422ZM77.6793 23.1232H80.5867C85.3609 23.1232 88.0173 20.8264 88.0173 15.7998C88.0173 11.278 84.9294 8.58491 80.9082 8.58491H77.6426V23.1232H77.6793ZM97.4572 8.19012H94.5131V5.24609H97.4572V8.19012ZM94.6936 11.3851H97.3133V25.6006H94.6936V11.3851Z" fill="#2C2F24"/>
<path fill-rule="evenodd" clip-rule="evenodd" d="M19.3759 23.8758C25.8364 23.6601 30.9349 18.5277 31.0054 12.1729V6.68241H38.1132V12.7495C37.9694 22.6208 29.3896 30.373 19.3759 30.59C9.18031 30.5168 0.53003 22.6914 0.422852 12.7468V1.87157C0.422852 0.759086 1.14054 0.0400391 2.2164 0.0400391H31.0054V6.68241H8.42734C7.85211 6.68241 7.49394 7.04193 7.49394 7.61581V12.0671C7.56584 18.4924 12.7715 23.8039 19.3759 23.8758Z" fill="#FC9153"/>
</svg>
