<svg width="192" height="25" viewBox="0 0 192 25" fill="none" xmlns="http://www.w3.org/2000/svg">
<path d="M55.5974 7.01783V17.8337H58.0268C58.6468 17.8235 59.2587 17.6754 59.8262 17.398C60.3937 17.1207 60.9053 16.7199 61.3308 16.2192C62.2042 15.1929 62.6821 13.8285 62.6626 12.4168C62.6811 11.7156 62.5747 11.0173 62.3493 10.3619C62.1239 9.70656 61.7841 9.10707 61.3494 8.59792C60.9221 8.09657 60.4069 7.69762 59.8355 7.42564C59.2641 7.15366 58.6485 7.0144 58.0268 7.01645H55.5987L55.5974 7.01783ZM58.0268 3.6266C62.5548 3.6266 65.9803 7.52115 65.9803 12.4168C65.9803 17.3125 62.5548 21.2291 58.0268 21.2291H52.6688C52.6177 21.2283 52.5672 21.2165 52.5203 21.1941C52.4733 21.1717 52.4308 21.1393 52.3951 21.0987C52.3595 21.0581 52.3314 21.0101 52.3124 20.9574C52.2935 20.9048 52.2841 20.8485 52.2847 20.7918V4.08179C52.2847 3.83976 52.4569 3.64311 52.6688 3.64311L58.0268 3.6266ZM77.6516 18.2105C79.7081 18.2174 81.5651 16.8133 82.3568 14.6529C82.7445 13.5973 82.8482 12.4396 82.6551 11.3199C82.4621 10.2003 81.9806 9.16687 81.269 8.34489C80.57 7.5364 79.6664 6.98237 78.6776 6.75599C77.6889 6.5296 76.6616 6.64152 75.7313 7.07696C73.8309 7.96809 72.5896 10.0763 72.5859 12.4168C72.5859 15.6073 74.8493 18.1954 77.6516 18.2105ZM77.6528 3.2278C82.4187 3.2278 86.0622 7.39738 86.0622 12.4168C86.0622 17.4363 82.4187 21.6059 77.6516 21.6059C72.8857 21.6059 69.2732 17.4569 69.2732 12.4168C69.2732 7.37675 72.9179 3.2278 77.6528 3.2278ZM97.6393 18.2105C100.443 18.2023 102.711 15.6114 102.709 12.421C102.705 9.22776 100.432 6.6424 97.6294 6.64103C94.8246 6.64103 92.5501 9.22501 92.5464 12.4168C92.5464 13.9543 93.0828 15.4285 94.0379 16.5149C94.5055 17.0503 95.0649 17.4762 95.6833 17.7675C96.3017 18.0587 96.9676 18.2094 97.6393 18.2105ZM97.6381 3.2278C102.389 3.2278 106.033 7.37675 106.033 12.4168C106.033 17.4569 102.374 21.6059 97.6381 21.6059C92.9032 21.6059 89.2287 17.4569 89.2287 12.4168C89.2287 7.37675 92.8722 3.2278 97.6381 3.2278ZM117.145 7.01783H113.72V11.6729H117.145C117.416 11.6862 117.686 11.6378 117.939 11.5306C118.192 11.4235 118.423 11.2599 118.617 11.0499C119.013 10.6236 119.239 10.0323 119.244 9.41066C119.254 9.09531 119.206 8.78098 119.104 8.48653C119.002 8.19208 118.847 7.92358 118.649 7.69717C118.455 7.47436 118.221 7.29917 117.961 7.18288C117.702 7.06659 117.424 7.01177 117.145 7.02195V7.01783ZM110.406 4.08179C110.406 3.83976 110.579 3.64311 110.791 3.64311H117.241C120.315 3.64311 122.54 6.20784 122.54 9.42854C122.564 11.6068 121.492 13.6078 119.781 14.5828L122.756 20.569C122.797 20.6378 122.82 20.7179 122.823 20.8004C122.825 20.883 122.807 20.9647 122.771 21.0365C122.735 21.1073 122.682 21.1651 122.617 21.2031C122.552 21.2411 122.479 21.2578 122.407 21.2511H119.796C119.724 21.2522 119.653 21.2306 119.591 21.1888C119.529 21.1469 119.479 21.0865 119.447 21.0145L116.58 15.0902H113.707V20.778C113.708 20.8348 113.699 20.8913 113.68 20.9441C113.661 20.9969 113.633 21.0451 113.597 21.0858C113.562 21.1266 113.519 21.1591 113.472 21.1816C113.425 21.204 113.374 21.216 113.323 21.2167H110.808C110.757 21.216 110.707 21.204 110.66 21.1816C110.613 21.1591 110.57 21.1266 110.534 21.0858C110.499 21.0451 110.471 20.9969 110.452 20.9441C110.433 20.8913 110.423 20.8348 110.424 20.778L110.407 4.08317L110.406 4.08179ZM131.178 7.10034V17.9176H133.606C134.226 17.9083 134.838 17.7611 135.405 17.4847C135.973 17.2084 136.485 16.8084 136.911 16.3086C137.785 15.2834 138.264 13.9201 138.245 12.509C138.265 11.8069 138.16 11.1075 137.935 10.4508C137.71 9.79425 137.371 9.19349 136.936 8.68319C136.508 8.18099 135.992 7.78154 135.419 7.50953C134.847 7.23752 134.23 7.09873 133.607 7.10172L131.178 7.10034ZM133.606 3.70499C138.134 3.70499 141.559 7.60366 141.559 12.509C141.559 17.4143 138.134 21.313 133.606 21.313H128.264C128.213 21.3122 128.162 21.3003 128.115 21.2779C128.068 21.2554 128.025 21.2229 127.99 21.1821C127.954 21.1414 127.926 21.0932 127.907 21.0404C127.888 20.9875 127.879 20.9311 127.88 20.8743V4.16568C127.88 3.92227 128.052 3.72562 128.264 3.72562L133.606 3.70499ZM151.663 8.00659L149.784 13.7907H153.539L151.663 8.00659ZM148.681 17.0595L147.451 20.91C147.427 21.0006 147.375 21.0795 147.306 21.1343C147.236 21.1891 147.152 21.2166 147.067 21.2126H144.399C144.331 21.2196 144.262 21.2062 144.201 21.1738C144.139 21.1414 144.086 21.0911 144.048 21.0283C144.009 20.9647 143.986 20.8911 143.98 20.8145C143.974 20.7379 143.986 20.6609 144.015 20.591L149.78 3.89752C149.807 3.80948 149.859 3.73362 149.929 3.68149C149.998 3.62935 150.081 3.6038 150.164 3.60873H153.15C153.234 3.60349 153.317 3.6289 153.387 3.68106C153.456 3.73321 153.508 3.80925 153.535 3.89752L159.301 20.591C159.33 20.661 159.341 20.7381 159.335 20.8147C159.329 20.8913 159.305 20.9649 159.266 21.0283C159.228 21.0908 159.175 21.1408 159.114 21.173C159.052 21.2052 158.984 21.2184 158.916 21.2112H156.248C156.163 21.2152 156.079 21.1877 156.01 21.1329C155.94 21.0782 155.889 20.9992 155.864 20.9086L154.634 17.0581H148.681V17.0595ZM162.394 8.38202C162.394 5.61788 164.493 3.2278 167.807 3.2278C169.592 3.18356 171.319 3.92459 172.614 5.28921C172.653 5.3306 172.685 5.38048 172.706 5.43581C172.728 5.49115 172.739 5.55076 172.739 5.61101C172.739 5.67125 172.728 5.73087 172.706 5.7862C172.685 5.84153 172.653 5.89141 172.614 5.9328L171.136 7.60366C171.1 7.64425 171.058 7.67653 171.011 7.69858C170.964 7.72062 170.914 7.73198 170.863 7.73198C170.812 7.73198 170.762 7.72062 170.715 7.69858C170.668 7.67653 170.626 7.64425 170.591 7.60366C169.895 6.87938 168.98 6.469 168.026 6.45262C166.701 6.45262 165.721 7.32862 165.721 8.33939C165.721 11.6068 173.554 9.72146 173.554 16.0088C173.55 19.1952 171.436 21.6059 167.697 21.6059C166.658 21.6177 165.629 21.3976 164.669 20.9586C163.709 20.5197 162.838 19.8708 162.108 19.0508C162.069 19.0094 162.037 18.9595 162.016 18.9042C161.994 18.8488 161.983 18.7892 161.983 18.729C161.983 18.6687 161.994 18.6091 162.016 18.5538C162.037 18.4984 162.069 18.4486 162.108 18.4072L163.538 16.7789C163.573 16.7364 163.617 16.7024 163.665 16.6792C163.713 16.656 163.764 16.644 163.817 16.644C163.869 16.644 163.921 16.656 163.969 16.6792C164.017 16.7024 164.06 16.7364 164.095 16.7789C164.995 17.769 166.207 18.3313 167.474 18.3467C169.13 18.3467 170.222 17.34 170.222 16.079C170.222 12.8101 162.392 14.6969 162.392 8.40815M187.759 4.05979V10.6662H181.128V4.05979C181.129 4.00308 181.12 3.94679 181.101 3.89412C181.082 3.84145 181.054 3.79344 181.018 3.75283C180.982 3.71222 180.94 3.67981 180.893 3.65744C180.846 3.63508 180.795 3.6232 180.744 3.62248H178.229C178.178 3.6232 178.128 3.63508 178.081 3.65744C178.034 3.67981 177.992 3.71222 177.956 3.75283C177.92 3.79344 177.892 3.84145 177.873 3.89412C177.854 3.94679 177.845 4.00308 177.845 4.05979V20.7505C177.845 20.9925 178.019 21.1892 178.229 21.1892H180.744C180.955 21.1892 181.128 20.9925 181.128 20.7505V14.0396H187.754V20.7505C187.754 20.9925 187.927 21.1892 188.138 21.1892H190.653C190.865 21.1892 191.037 20.9925 191.037 20.7505V4.05979C191.037 4.00308 191.028 3.94679 191.009 3.89412C190.99 3.84145 190.962 3.79344 190.926 3.75283C190.891 3.71222 190.848 3.67981 190.801 3.65744C190.754 3.63508 190.704 3.6232 190.653 3.62248H188.138C188.036 3.62536 187.938 3.67288 187.867 3.75474C187.796 3.8366 187.757 3.9462 187.759 4.05979ZM38.1679 5.85029C36.4236 2.26104 33.0106 0.0263502 29.2989 0.0401022H1.2165C1.02686 0.0409567 0.841627 0.10374 0.683897 0.220628C0.526167 0.337517 0.402909 0.503343 0.329482 0.697444C0.257128 0.890301 0.238284 1.10274 0.275363 1.30756C0.312442 1.51238 0.403757 1.70025 0.53761 1.84711L6.65509 8.58555C7.19523 9.18238 7.93111 9.51655 8.69673 9.51655H28.4937C29.9047 9.50005 31.0581 10.7405 31.073 12.2848C31.0878 13.8292 29.9568 15.0943 28.5457 15.1095H14.8972C14.7074 15.1095 14.5219 15.1717 14.3637 15.2881C14.2055 15.4045 14.0817 15.57 14.0077 15.7641C13.9347 15.9571 13.9153 16.17 13.9522 16.3754C13.9891 16.5808 14.0805 16.7692 14.2146 16.9165L20.3358 23.6604C20.8793 24.2569 21.6131 24.591 22.3774 24.59H28.5507C36.5822 24.59 42.6551 15.1837 38.1679 5.84616" fill="#FF3008"/>
</svg>
