<svg width="167" height="31" viewBox="0 0 167 31" fill="none" xmlns="http://www.w3.org/2000/svg">
<path d="M34.3623 9.64808H36.7414V7.36256C36.7414 4.60193 38.2675 2.7915 41.3125 2.7915L42.8386 3.07944V5.84007L41.2189 5.55213C40.2651 5.55213 39.8872 6.12801 39.8872 7.07822V9.64808H42.9321V12.4087H39.8836V23.8363H36.8386V12.4087H34.3623V9.64808ZM50.6453 9.36374C54.5505 9.36374 58.0742 12.4087 58.0742 16.7926C58.0742 21.1765 54.6477 24.2179 50.6453 24.2179C46.643 24.2179 43.2201 21.1729 43.2201 16.7926C43.2201 12.3151 46.7401 9.36374 50.6453 9.36374ZM50.6453 21.4572C53.5031 21.4572 55.0256 19.3625 55.0256 16.7926C55.0256 14.2227 53.5031 12.1244 50.6453 12.1244C47.7875 12.1244 46.265 14.2191 46.265 16.7926C46.265 19.2653 47.7911 21.4572 50.6453 21.4572ZM66.7412 9.36374C70.6464 9.36374 74.1665 12.4087 74.1665 16.7926C74.1665 21.1765 70.74 24.2179 66.7412 24.2179C62.7424 24.2179 59.3123 21.1729 59.3123 16.7926C59.4059 12.3151 62.836 9.36374 66.7412 9.36374ZM66.7412 21.4572C69.5954 21.4572 71.1215 19.3625 71.1215 16.7926C71.1215 14.2227 69.5954 12.1244 66.7412 12.1244C63.887 12.1244 62.3609 14.2191 62.3609 16.7926C62.3609 19.2653 63.8834 21.4572 66.7412 21.4572ZM89.978 23.8363H87.2138L86.9258 22.6018L86.7387 22.411L86.5479 22.6018C85.5941 23.552 84.1688 24.1243 82.6427 24.1243C78.7375 24.1243 75.4082 21.0757 75.4082 16.6954C75.4082 12.3151 78.7375 9.26656 82.6427 9.26656C84.1688 9.26656 85.6913 9.84244 86.5479 10.7926L86.7387 10.9834L86.9294 10.7926V2.88868H89.978V23.8363ZM82.8335 12.0308C79.9757 12.0308 78.4532 14.1256 78.4532 16.6954C78.4532 19.2653 79.9757 21.3637 82.8335 21.3637C85.407 21.3637 87.2138 19.2653 87.2138 16.6954C87.2138 14.2191 85.407 12.0308 82.8335 12.0308ZM93.023 9.64808H95.7872L96.0715 10.8862L96.2623 11.077L96.4531 10.8862C97.4033 9.93603 98.8322 9.36374 100.358 9.36374C104.26 9.36374 107.593 12.4087 107.593 16.7926C107.593 21.1765 104.26 24.2179 100.358 24.2179C98.8322 24.2179 97.3097 23.6492 96.4531 22.6954L96.2623 22.5046L96.0715 22.6954V30.315H93.1202V9.64808H93.023ZM100.07 21.4572C102.928 21.4572 104.451 19.3625 104.451 16.7926C104.451 14.2227 102.928 12.1244 100.07 12.1244C97.5005 12.1244 95.69 14.2191 95.69 16.7926C95.69 19.2653 97.5005 21.4572 100.07 21.4572ZM115.119 14.9822H117.591V14.3163C117.591 12.5995 116.451 11.84 114.831 11.84C113.499 11.84 112.643 12.5059 112.167 13.744L109.5 13.1718C110.069 10.7926 112.164 9.26656 114.928 9.26656C118.736 9.26656 120.64 11.1742 120.64 14.885V23.7428H118.164L117.876 21.8352C116.926 23.2677 115.403 23.9335 113.402 23.9335C110.832 23.9335 109.022 22.411 109.022 19.5532C108.928 16.7926 111.404 14.9822 115.119 14.9822ZM113.787 21.4572C114.737 21.4572 115.687 21.1693 116.357 20.5034C117.116 19.8376 117.498 18.981 117.498 17.84V17.552H114.928C113.118 17.552 111.977 18.4087 111.977 19.744C111.977 20.6942 112.643 21.4572 113.783 21.4572H113.787ZM123.307 9.64808H126.068L126.356 10.8862L126.546 11.077L126.734 10.8862C127.309 9.93603 128.832 9.36374 130.07 9.36374C133.687 9.36374 135.782 11.7429 135.782 15.0758V23.8363H132.734V15.0758C132.64 13.1718 131.69 12.0308 129.689 12.0308C127.878 12.0308 126.449 13.4597 126.356 15.2701V23.8363H123.307V9.64808ZM152.065 23.8363H149.305L149.017 22.6018L148.829 22.411L148.639 22.6018C147.685 23.552 146.256 24.1243 144.733 24.1243C140.828 24.1243 137.499 21.0757 137.499 16.6954C137.499 12.3151 140.828 9.26656 144.733 9.26656C146.256 9.26656 147.782 9.84244 148.639 10.7926L148.829 10.9834L149.02 10.7926V2.88868H152.065V23.8363ZM145.018 12.0308C142.164 12.0308 140.638 14.1256 140.638 16.6954C140.638 19.2653 142.164 21.3637 145.018 21.3637C147.591 21.3637 149.402 19.2653 149.402 16.6954C149.402 14.2191 147.591 12.0308 145.018 12.0308ZM160.732 14.9822H163.208V14.3163C163.208 12.5995 162.068 11.84 160.448 11.84C159.116 11.84 158.256 12.5059 157.781 13.744L155.117 13.1718C155.686 10.7926 157.781 9.26656 160.541 9.26656C164.353 9.26656 166.257 11.1742 166.257 14.885V23.7428H163.781L163.493 21.8352C162.543 23.2677 161.017 23.9335 159.019 23.9335C156.445 23.9335 154.639 22.411 154.639 19.5532C154.541 16.7926 156.924 14.9822 160.732 14.9822ZM159.4 21.4572C160.351 21.4572 161.304 21.1693 161.97 20.5034C162.733 19.8376 163.115 18.981 163.115 17.84V17.552H160.541C158.731 17.552 157.59 18.4087 157.59 19.744C157.59 20.6942 158.256 21.4572 159.4 21.4572Z" fill="#D70F64"/>
<path d="M13.2994 19.3617C15.0162 19.3617 16.4451 18.1236 16.4451 16.6011H10.1572C10.1572 18.1236 11.4854 19.3617 13.2994 19.3617Z" fill="#D70F64"/>
<path d="M23.8804 6.22152C24.6434 5.64924 25.0249 4.69543 25.0249 3.64805C25.0249 1.74404 23.5025 0.315138 21.5949 0.315138C20.3603 0.315138 19.3093 0.88742 18.7406 1.84122C17.02 1.00545 15.1285 0.581556 13.2158 0.603079C11.307 0.607525 9.42241 1.03015 7.69453 1.84122C7.11865 0.883821 6.07487 0.315138 4.83673 0.315138C3.94084 0.305493 3.07749 0.650461 2.43493 1.27481C1.79237 1.89917 1.42274 2.75226 1.40664 3.64805C1.41461 4.13192 1.52008 4.60921 1.71674 5.05139C1.9134 5.49356 2.19721 5.89154 2.5512 6.22152C1.10496 8.32044 0.339673 10.8136 0.359253 13.3624C0.360207 16.7722 1.71492 20.0422 4.12568 22.4536C6.53644 24.865 9.80599 26.2207 13.2158 26.2226C16.625 26.2207 19.894 24.8655 22.3046 22.4549C24.7153 20.0442 26.0704 16.7752 26.0723 13.366C26.0723 10.7026 25.3093 8.2227 23.8804 6.22512V6.22152ZM13.313 25.1716C6.83071 25.1716 1.50382 19.8375 1.50382 13.366C1.50382 10.8862 2.26326 8.60062 3.5014 6.69662C4.65385 4.9542 6.2709 3.56904 8.16964 2.69785C9.69212 1.9348 11.5025 1.55328 13.3094 1.55328C15.1162 1.55328 16.9266 1.9348 18.4491 2.69785C20.3567 3.64805 21.8792 4.98337 23.1173 6.69662C24.3555 8.60422 25.1149 10.8862 25.1149 13.3624C25.1149 19.8411 19.7844 25.168 13.3094 25.168L13.313 25.1716Z" fill="#D70F64"/>
<path d="M13.2966 15.8392C13.4909 15.9328 15.4921 15.1733 15.4921 14.2195C15.4921 13.6472 13.8724 13.5537 13.2966 13.5537C12.7207 13.5537 11.1082 13.6472 11.1082 14.2195C11.0146 15.1733 13.1058 15.9328 13.2966 15.8392ZM20.7254 7.83803C19.5845 7.07859 17.1082 6.69707 16.1544 7.93521C16.1544 7.93521 14.9162 9.26694 16.1544 10.5987C17.3925 11.9304 18.2491 13.2693 18.5371 14.3167C18.825 15.4577 19.2965 15.8392 20.1567 15.8392C21.017 15.8392 22.7266 14.5075 23.0109 12.3155C23.083 11.4306 22.9074 10.5431 22.5038 9.75233C22.1001 8.96156 21.4844 8.29873 20.7254 7.83803ZM18.1555 10.6023C17.774 10.6023 17.4897 10.3143 17.4897 9.9364C17.4897 9.55848 17.7776 9.26694 18.1555 9.26694C18.5335 9.26694 18.8214 9.55488 18.8214 9.9364C18.8214 10.3179 18.5335 10.6023 18.1555 10.6023ZM10.3452 7.93521C9.39496 6.69707 6.91868 7.07859 5.77411 7.83803C4.62955 8.59748 3.29782 10.1236 3.48859 12.3155C3.67935 14.5075 5.39619 15.8392 6.34639 15.8392C7.20302 15.8392 7.67812 15.3641 7.96606 14.3167C8.254 13.1721 9.2042 11.934 10.3452 10.6023C11.5833 9.17336 10.3452 7.93521 10.3452 7.93521ZM8.53834 10.5987C8.15682 10.5987 7.86888 10.3143 7.86888 9.9364C7.86888 9.55848 8.15682 9.26694 8.53834 9.26694C8.91986 9.26694 9.2042 9.55488 9.2042 9.9364C9.2042 10.3179 8.91626 10.5987 8.53834 10.5987Z" fill="#D70F64"/>
</svg>
