<svg width="118" height="25" viewBox="0 0 118 25" fill="none" xmlns="http://www.w3.org/2000/svg">
<path d="M98.7877 0.388906H94.6874C94.4562 0.388906 94.3408 0.504473 94.3408 0.735515V16.9642C94.3408 17.7728 94.0809 18.3791 93.7342 18.8413C93.3879 19.3034 92.9259 19.4188 92.3482 19.4188C91.7708 19.4188 91.2798 19.1877 90.9333 18.8413C90.5869 18.3791 90.3559 17.7728 90.3559 16.9642V0.735515C90.3559 0.504473 90.1246 0.388906 90.0092 0.388906H85.8797C85.6487 0.388906 85.5333 0.504473 85.5333 0.735515V17.0798C85.5333 19.1878 85.9954 21.1803 87.2947 22.4796C88.5653 23.7792 90.3269 24.4723 92.3481 24.4723C94.4561 24.4723 96.2176 23.7793 97.4015 22.4796C98.6722 21.2093 99.1631 19.3323 99.1631 17.0798V0.735515C99.2786 0.620132 99.0477 0.388906 98.7877 0.388906ZM114.526 11.911C115.219 11.2178 116.518 9.57184 116.518 7.435C116.518 4.95173 115.565 3.4501 114.844 2.61249C113.544 1.22642 111.811 0.504473 109.79 0.504473H103.322C103.062 0.504473 102.946 0.735515 102.946 0.850898V23.7792C102.946 24.0102 103.177 24.1258 103.322 24.1258H110.165C112.273 24.1258 114.266 23.3172 115.565 21.6424C116.258 20.7183 117.096 19.1588 117.096 16.82C116.865 14.0189 115.132 12.3729 114.526 11.911ZM107.711 5.21132H109.819C110.396 5.21132 110.858 5.32671 111.205 5.78888C111.58 6.16422 111.696 6.74187 111.696 7.46373C111.696 8.18559 111.58 8.73414 111.205 9.22532C110.858 9.57175 110.396 9.80279 109.934 9.80279H107.826V5.21132H107.711ZM111.465 18.7257C111.118 19.1878 110.656 19.3033 109.934 19.3033H107.595V14.3363H109.934C110.512 14.3363 110.974 14.5962 111.32 14.943C111.696 15.4049 111.927 15.9824 111.927 16.7043C112.042 17.6572 111.84 18.2349 111.465 18.7257ZM27.8374 13.9033C28.2994 13.5568 28.6748 13.3258 29.0213 12.8349C29.8299 11.9109 30.8982 10.2647 30.8982 7.66586C30.8982 5.18241 29.9453 3.56539 29.0213 2.61249C27.8374 1.22642 26.0758 0.504473 24.0834 0.388906H17.2684C17.0374 0.388906 16.9219 0.620132 16.9219 0.735515V23.635C16.9219 23.866 17.1529 23.9814 17.2684 23.9814H21.3689C21.5999 23.9814 21.7155 23.7503 21.7155 23.635V15.1739H23.1305L25.7005 23.866C25.7005 23.9814 25.9603 24.0969 26.0759 24.0969H30.4074C30.5229 24.0969 30.6385 23.9814 30.7539 23.9814C30.8694 23.9814 30.8694 23.7503 30.8694 23.635L27.8374 13.9033ZM25.2384 9.65822C24.8919 10.1206 24.3143 10.3802 23.5924 10.3802H21.5998V5.21132H23.5924C24.2854 5.21132 24.8629 5.44237 25.2384 5.90436C25.7004 6.39545 25.8448 6.97292 25.8448 7.78152C25.8448 8.61885 25.7293 9.19622 25.2384 9.65822ZM62.5762 11.911C63.2982 11.2178 64.5689 9.57184 64.5689 7.435C64.5689 4.95173 63.6448 3.4501 62.9228 2.61249C61.6234 1.22642 59.8617 0.504473 57.8694 0.504473H51.4297C51.1987 0.504473 51.0832 0.735515 51.0832 0.850898V23.7792C51.0832 24.0102 51.3143 24.1258 51.4297 24.1258H58.2447C60.3527 24.1258 62.3453 23.3172 63.6735 21.6424C64.3666 20.7183 65.2041 19.1588 65.2041 16.82C65.0598 14.0189 63.2982 12.3729 62.5762 11.911ZM55.7901 5.21132H57.8982C58.4758 5.21132 58.9378 5.32671 59.2844 5.78888C59.6308 6.16422 59.7464 6.74187 59.7464 7.46373C59.7464 8.18559 59.6308 8.73414 59.2844 9.22532C58.9378 9.57175 58.4758 9.80279 58.0137 9.80279H55.9056V5.21132H55.7901ZM59.6596 18.7257C59.3133 19.1878 58.851 19.3033 58.1292 19.3033H55.7901V14.3363H58.1292C58.7066 14.3363 59.1687 14.5962 59.5152 14.943C59.8616 15.4049 60.1216 15.9824 60.1216 16.7043C60.1505 17.6572 60.0351 18.2349 59.6596 18.7257ZM6.78614 0.0424805C4.67803 0.0424805 2.91662 0.735515 1.73268 2.03484C0.461992 3.33435 0 5.18241 0 7.43491V17.1951C0 19.3034 0.461992 21.2956 1.73268 22.5953C3.03209 23.8949 4.7936 24.5879 6.78614 24.5879C8.89406 24.5879 10.6844 23.895 11.8683 22.5953C13.139 21.3246 13.601 19.4476 13.601 17.1951V11.824C13.601 11.5643 13.37 11.3333 13.139 11.3333H7.16148C6.90171 11.3333 6.67066 11.5643 6.67066 11.824V15.8091C6.67066 16.0401 6.90171 16.2712 7.16148 16.2712H8.69203V17.2241C8.69203 18.0327 8.46099 18.7547 8.11456 19.2168C7.76786 19.6789 7.27714 19.7942 6.69949 19.7942C6.12202 19.7942 5.65993 19.5633 5.28459 19.2168C4.93808 18.7547 4.70713 18.0328 4.70713 17.2241V7.57948C4.70713 6.74187 4.93808 6.01992 5.28459 5.58657C5.66003 5.12458 6.12202 5.0092 6.69949 5.0092C7.27714 5.0092 7.76795 5.24024 8.11456 5.58657C8.46108 6.04866 8.69203 6.74187 8.69203 7.57948V8.50347C8.69203 8.73423 8.92298 8.87871 9.03855 8.87871H13.1391C13.3701 8.87871 13.4856 8.73423 13.4856 8.50347V7.57948C13.4856 5.47119 13.0236 3.47874 11.7242 2.17932C10.6845 0.735515 8.77859 0.0424805 6.78614 0.0424805ZM46.9828 0.388906H42.8822C42.6512 0.388906 42.5356 0.504473 42.5356 0.735515V16.9642C42.5356 17.7728 42.2758 18.3791 41.9293 18.8413C41.5827 19.3034 41.1206 19.4188 40.5432 19.4188C39.9657 19.4188 39.4747 19.1877 39.1283 18.8413C38.7817 18.3791 38.5508 17.7728 38.5508 16.9642V0.735515C38.5508 0.504473 38.2908 0.388906 38.1754 0.388906H34.0749C33.8439 0.388906 33.7284 0.504473 33.7284 0.735515V17.0798C33.7284 19.1878 34.2193 21.1803 35.4898 22.4796C36.7892 23.7792 38.5508 24.4723 40.5432 24.4723C42.6514 24.4723 44.4417 23.7793 45.5967 22.4796C46.8961 21.2093 47.3581 19.3323 47.3581 17.0798V0.735515C47.3293 0.620132 47.2137 0.388906 46.9828 0.388906ZM81.5194 0.388906H77.4189C77.188 0.388906 77.0725 0.620132 77.0725 0.735515V9.65822H72.972V0.735515C72.972 0.504473 72.741 0.388906 72.6254 0.388906H68.5249C68.2938 0.388906 68.1784 0.620132 68.1784 0.735515V23.635C68.1784 23.866 68.4095 23.9814 68.5249 23.9814H72.6254C72.8564 23.9814 72.972 23.7503 72.972 23.635V14.481H77.0725V23.635C77.0725 23.866 77.3035 23.9814 77.4189 23.9814H81.5194C81.7505 23.9814 81.8661 23.7503 81.8661 23.635V0.735515C81.8661 0.620132 81.7505 0.388906 81.5194 0.388906Z" fill="#F63440"/>
</svg>
