<svg width="151" height="31" viewBox="0 0 151 31" fill="none" xmlns="http://www.w3.org/2000/svg">
<path d="M18.0839 12.329C19.8663 14.1199 21.3241 17.0526 20.4898 18.7951C18.259 23.4546 1.61272 31.6275 0.199071 30.2125C-1.21458 28.7988 6.96266 12.1468 11.6236 9.91459C13.3661 9.08035 16.2987 10.5381 18.091 12.3205C18.0896 12.3219 18.0882 12.3248 18.0839 12.329Z" fill="#FF8200"/>
<path d="M26.9015 10.3599C26.6125 9.28789 25.8736 8.20452 24.7703 8.0764C22.7474 7.8415 19.5599 11.4176 19.7877 12.2661C20.0155 13.1146 24.5198 14.6108 26.2011 13.4021C27.0681 12.7786 27.1905 11.4319 26.9058 10.3599H26.9015ZM20.6419 0.45295C22.1438 0.860103 23.6628 1.89507 23.8421 3.44111C24.1724 6.27695 19.1585 10.7471 17.9683 10.4282C16.7782 10.1093 14.6812 3.79417 16.3767 1.43524C17.2508 0.219477 19.1385 0.0486438 20.6433 0.447255C20.6419 0.447255 20.6419 0.450103 20.6419 0.45295Z" fill="#43B02A"/>
<path d="M65.4103 17.2351L63.9212 17.0088C62.5019 16.7995 61.6804 16.3397 61.6804 15.504C61.6804 14.5445 62.7496 13.9494 64.3298 13.9494C65.4473 13.9494 66.357 14.368 67.2282 14.8122L67.4019 14.9004C67.6027 15.0029 67.819 15.0542 68.0426 15.0542C68.5593 15.0542 69.0362 14.7737 69.2854 14.321L69.4064 14.1018C69.5986 13.7516 69.6398 13.3487 69.5217 12.9672C69.4035 12.587 69.143 12.2795 68.7871 12.1016C67.5187 11.4667 66.142 10.8958 64.3283 10.8958C60.5387 10.8958 58.0986 12.7251 58.0986 15.6706C58.0986 18.0879 59.8354 19.604 63.124 20.0525L64.6259 20.2475C66.2132 20.4696 66.9848 20.9394 66.9848 21.6839C66.9848 22.3715 66.6132 23.2841 64.1547 23.2841C62.7994 23.2841 61.4228 22.9396 60.3052 22.232C60.0817 22.0911 59.8255 22.0156 59.5621 22.0156C59.0709 22.0156 58.6054 22.2762 58.3463 22.6947L58.2623 22.8299C58.0545 23.1659 57.9918 23.5788 58.0901 23.9617C58.1883 24.3447 58.4303 24.6607 58.772 24.8515C60.7195 25.9462 62.9688 26.3349 64.1532 26.3349C68.1038 26.3349 70.5481 24.6038 70.5481 21.5572C70.5524 19.1229 68.8213 17.7249 65.4103 17.2351ZM111.34 22.5566C111.056 22.2377 110.646 22.0555 110.219 22.0555C109.93 22.0555 109.648 22.1381 109.401 22.2932C108.597 22.8029 107.717 23.0734 106.853 23.0734C104.48 23.0734 102.757 21.1985 102.757 18.616C102.757 16.0336 104.48 14.1587 106.853 14.1587C107.764 14.1587 108.58 14.4064 109.346 14.9161C109.94 15.3104 110.791 15.2093 111.279 14.6883L111.406 14.5531C111.74 14.1972 111.898 13.7131 111.841 13.2277C111.786 12.7508 111.525 12.3251 111.128 12.0617C109.961 11.2873 108.514 10.8787 106.944 10.8787C102.389 10.8787 99.2069 14.0605 99.2069 18.6146C99.2069 23.1702 102.389 26.352 106.944 26.352C108.522 26.352 109.977 25.9348 111.152 25.1447C111.545 24.8814 111.804 24.46 111.863 23.9873C111.923 23.5119 111.773 23.0349 111.454 22.679L111.34 22.5566ZM37.6199 5.64551C36.4341 5.64551 35.5059 6.58652 35.5059 7.78662C35.5059 8.99242 36.4141 9.90069 37.6199 9.90069C38.82 9.90069 39.761 8.97249 39.761 7.78662C39.761 6.58652 38.82 5.64551 37.6199 5.64551ZM38.2591 11.0054H37.012C36.4013 11.0054 35.9059 11.5008 35.9059 12.1116V24.87C35.9059 25.4807 36.4013 25.9761 37.012 25.9761H38.2591C38.8699 25.9761 39.3653 25.4807 39.3653 24.87V12.1116C39.3653 11.5008 38.8699 11.0054 38.2591 11.0054ZM79.2065 23.0065C77.8071 23.0008 76.1799 21.9046 76.1799 19.9841V14.2285H79.2165C79.8272 14.2285 80.3226 13.7331 80.3226 13.1223V12.1116C80.3226 11.5008 79.8272 11.0054 79.2165 11.0054H76.1799V7.68412C76.1799 7.07339 75.6845 6.57797 75.0738 6.57797H73.7584C73.1476 6.57797 72.6522 7.07339 72.6522 7.68412V19.7777C72.6522 23.2599 75.2944 26.3377 78.9531 26.3377H78.9546C79.319 26.3377 79.6635 26.1954 79.924 25.9348C80.1831 25.6757 80.3269 25.3312 80.3269 24.9654V24.1126C80.3241 23.499 79.8215 23.0093 79.2065 23.0065ZM48.9832 10.8801C44.5558 10.8801 42.0858 14.4221 42.0858 17.4515V24.87C42.0858 25.4807 42.5812 25.9761 43.192 25.9761H44.4533C45.064 25.9761 45.5594 25.4807 45.5594 24.87V18.0082C45.5594 15.7105 46.9517 14.1886 48.9818 14.1886C51.0119 14.1886 52.4042 15.7105 52.4042 18.0082V24.87C52.4042 25.4807 52.8996 25.9761 53.5103 25.9761H54.7716C55.3824 25.9761 55.8778 25.4807 55.8778 24.87V17.4515C55.8806 14.4207 53.4121 10.8801 48.9832 10.8801ZM140.062 11.0339C139.582 10.9285 138.379 10.8801 137.755 10.8801C137.7 10.8801 137.644 10.8816 137.59 10.8816C134.162 10.8816 130.996 13.6761 130.996 17.5284C130.996 17.5313 130.995 17.5355 130.995 17.5384V24.87C130.995 25.4807 131.49 25.9761 132.101 25.9761H133.362C133.973 25.9761 134.468 25.4807 134.468 24.87V17.6551C134.468 15.5581 135.966 14.19 137.801 14.19C138.137 14.1957 138.497 14.2327 138.85 14.3025C138.947 14.321 139.044 14.331 139.142 14.331C139.843 14.331 140.449 13.8469 140.613 13.1665C140.702 12.792 140.769 12.5144 140.832 12.2596C140.895 12.0048 140.852 11.7172 140.707 11.4837C140.56 11.2531 140.331 11.0923 140.062 11.0339ZM149.314 14.2285C149.925 14.2285 150.42 13.7331 150.42 13.1223V12.1116C150.42 11.5008 149.925 11.0054 149.314 11.0054H146.277V7.68412C146.277 7.07339 145.782 6.57797 145.17 6.57797H143.854C143.244 6.57797 142.748 7.07339 142.748 7.68412V19.7777C142.748 23.2599 145.39 26.3377 149.049 26.3377H149.05C149.416 26.3377 149.759 26.1954 150.02 25.9348C150.279 25.6757 150.423 25.3312 150.423 24.9654V24.1126C150.423 23.4976 149.92 23.0079 149.305 23.0065C147.906 23.0008 146.279 21.9046 146.279 19.9841V14.2285H149.314ZM125.238 12.0674C125.236 12.066 125.233 12.0646 125.232 12.0632C124.065 11.2887 122.618 10.8801 121.048 10.8801C121.021 10.8801 120.994 10.8816 120.967 10.8816C120.94 10.8816 120.913 10.8801 120.886 10.8801C119.315 10.8801 117.868 11.2887 116.702 12.0632C116.7 12.0646 116.697 12.066 116.696 12.0674C114.595 13.39 113.312 15.7261 113.312 18.6175C113.312 21.6455 114.72 24.0656 117.001 25.3483C118.064 25.9761 119.327 26.3505 120.688 26.352C123.173 26.3534 124.675 24.9454 125.147 24.3304V24.86C125.147 25.4707 125.642 25.9662 126.253 25.9662H127.514C128.125 25.9662 128.62 25.4707 128.62 24.86V18.616C128.622 15.7247 127.339 13.3885 125.238 12.0674ZM122.356 22.8413C121.952 22.9752 121.541 23.052 121.132 23.0691C121.102 23.0705 121.072 23.0705 121.042 23.072C121.017 23.072 120.992 23.0734 120.967 23.0734C120.941 23.0734 120.917 23.072 120.891 23.072C120.861 23.072 120.832 23.0705 120.802 23.0691C120.393 23.052 119.98 22.9752 119.577 22.8413C117.946 22.2648 116.863 20.6646 116.863 18.616C116.863 16.1988 118.373 14.4007 120.513 14.1815C120.524 14.1801 120.535 14.1801 120.547 14.1786C120.595 14.1744 120.644 14.1701 120.693 14.1673C120.721 14.1658 120.749 14.1644 120.776 14.163C120.823 14.1616 120.871 14.1601 120.918 14.1601C120.935 14.1601 120.951 14.1587 120.968 14.1587C120.985 14.1587 121.001 14.1587 121.018 14.1601C121.066 14.1601 121.113 14.1616 121.16 14.163C121.189 14.1644 121.216 14.1658 121.243 14.1673C121.291 14.1701 121.341 14.173 121.39 14.1786C121.401 14.1801 121.412 14.1801 121.424 14.1815C123.563 14.4007 125.074 16.1973 125.074 18.616C125.071 20.6632 123.988 22.2648 122.356 22.8413ZM93.7487 12.0674C93.7473 12.066 93.7445 12.0646 93.7431 12.0632C92.5757 11.2887 91.1293 10.8801 89.5591 10.8801C89.532 10.8801 89.505 10.8816 89.4779 10.8816C89.4509 10.8816 89.4238 10.8801 89.3968 10.8801C87.8265 10.8801 86.3787 11.2887 85.2128 12.0632C85.2113 12.0646 85.2085 12.066 85.2071 12.0674C83.1058 13.39 81.8231 15.7261 81.8231 18.6175C81.8231 21.6455 83.2311 24.0656 85.5117 25.3483C86.5752 25.9761 87.8379 26.3505 89.1989 26.352C91.6845 26.3534 93.1864 24.9454 93.6576 24.3304V24.86C93.6576 25.4707 94.1531 25.9662 94.7638 25.9662H96.0251C96.6358 25.9662 97.1312 25.4707 97.1312 24.86V18.616C97.1327 15.7247 95.85 13.3885 93.7487 12.0674ZM90.8674 22.8413C90.463 22.9752 90.0516 23.052 89.643 23.0691C89.6131 23.0705 89.5833 23.0705 89.5534 23.072C89.5277 23.072 89.5035 23.0734 89.4779 23.0734C89.4523 23.0734 89.4281 23.072 89.4025 23.072C89.3726 23.072 89.3427 23.0705 89.3128 23.0691C88.9042 23.052 88.4913 22.9752 88.0885 22.8413C86.457 22.2648 85.3736 20.6646 85.3736 18.616C85.3736 16.1988 86.8841 14.4007 89.0238 14.1815C89.0352 14.1801 89.0465 14.1801 89.0579 14.1786C89.1063 14.1744 89.1547 14.1701 89.2046 14.1673C89.2316 14.1658 89.2601 14.1644 89.2871 14.163C89.3341 14.1616 89.3825 14.1601 89.4295 14.1601C89.4466 14.1601 89.4622 14.1587 89.4793 14.1587C89.4964 14.1587 89.5121 14.1587 89.5292 14.1601C89.5776 14.1601 89.6245 14.1616 89.6715 14.163C89.7 14.1644 89.727 14.1658 89.7541 14.1673C89.8025 14.1701 89.8523 14.173 89.9007 14.1786C89.9121 14.1801 89.9235 14.1801 89.9349 14.1815C92.0746 14.4007 93.585 16.1973 93.585 18.616C93.5822 20.6632 92.4988 22.2648 90.8674 22.8413Z" fill="#43B02A"/>
</svg>
