<svg width="139" height="25" viewBox="0 0 139 25" fill="none" xmlns="http://www.w3.org/2000/svg">
<path d="M43.3234 1.36067C44.7174 0.503852 46.378 0.164965 47.9993 0.185975C50.4383 0.272752 52.8671 0.909416 55.0147 2.07407C53.6445 3.29261 52.1976 4.4253 50.8064 5.62466C49.8929 5.40726 48.9494 5.05832 48.0021 5.27572C47.3691 5.41548 46.726 5.71875 46.3543 6.27595C45.9816 6.82859 46.0282 7.62695 46.4822 8.12113C47.0193 8.72766 47.813 9.00079 48.5566 9.25564C50.2054 9.77448 51.9382 10.1609 53.3942 11.1373C54.3606 11.764 55.1691 12.6637 55.5746 13.748C55.9729 14.7574 56.0268 15.8672 55.9464 16.9396C55.8633 18.3774 55.5043 19.8352 54.695 21.0437C53.8564 22.3116 52.5264 23.1711 51.1343 23.7229C48.1839 24.8391 44.8352 24.5989 41.9395 23.4315C40.8847 23.0078 39.8821 22.464 38.9516 21.811C39.9705 20.4089 41.0045 19.0179 42.0537 17.6384C43.3289 18.2203 44.6215 18.7729 45.9587 19.1903C46.8612 19.5064 47.897 19.3648 48.7128 18.8797C49.3366 18.518 49.7477 17.822 49.7368 17.0976C49.7724 16.4911 49.4024 15.9403 48.9338 15.5913C47.9683 14.8752 46.7635 14.6322 45.6344 14.2915C44.2003 13.8567 42.7022 13.41 41.5431 12.4162C40.594 11.6132 40.0861 10.4002 39.9436 9.18712C39.7865 7.71829 39.8687 6.19008 40.4269 4.80712C40.9821 3.36808 42.0014 2.1553 43.3234 1.36067ZM8.44784 0.768757C10.3953 0.770584 12.3428 0.768756 14.2903 0.770583V14.1709C14.2903 15.6078 14.3771 17.0611 14.1094 18.4833C13.8491 19.901 13.2617 21.2913 12.2496 22.3381C11.1443 23.5 9.5796 24.1394 8.00572 24.323C6.86391 24.4536 5.68097 24.4536 4.57844 24.0928C2.95797 23.5959 1.62708 22.413 0.717285 21.0081C1.86549 19.7905 3.02649 18.5875 4.17378 17.3689C4.6095 17.9398 5.07353 18.5007 5.64627 18.9428C6.03357 19.2369 6.53869 19.4278 7.02464 19.2835C7.538 19.1885 7.95453 18.7893 8.14271 18.3125C8.38203 17.7251 8.43958 17.0821 8.44689 16.4545L8.44784 0.768757ZM17.4489 0.778793C19.3955 0.771485 21.343 0.759614 23.2896 0.771489C23.2996 4.44996 23.2905 8.1321 23.2932 11.8115C23.2996 13.2282 23.2366 14.666 23.5755 16.0554C23.7965 16.988 24.2478 17.9225 25.0534 18.4852C25.9514 19.1182 27.1078 19.2305 28.1738 19.1282C29.0882 19.0341 30.008 18.6313 30.5662 17.8804C31.0485 17.252 31.2923 16.4792 31.4266 15.7083C31.581 14.7985 31.6148 13.8713 31.613 12.9487C31.6121 8.89026 31.6148 4.82814 31.612 0.768757C33.5586 0.763277 35.5061 0.768744 37.4545 0.766917C37.4563 5.28942 37.4545 9.81285 37.4554 14.3353C37.4517 15.8699 37.4097 17.4319 36.9539 18.909C36.5506 20.2441 35.7529 21.4261 34.6657 22.2997C33.386 23.3356 31.7911 23.9028 30.187 24.1924C28.3903 24.503 26.5388 24.4957 24.7447 24.1696C23.1572 23.869 21.5805 23.289 20.3199 22.2513C19.654 21.6914 19.0694 21.0246 18.6428 20.2646C17.8819 18.941 17.6006 17.4045 17.5083 15.8983C17.427 14.73 17.4581 13.558 17.4517 12.386C17.449 8.51848 17.4499 4.64909 17.4489 0.778793ZM55.9948 0.770583C62.3223 0.768756 68.6498 0.770583 74.9745 0.770583C74.9955 2.47782 75.011 4.18689 74.9654 5.89413L68.4169 5.89321C68.4087 11.9704 68.426 18.0476 68.4223 24.1248C66.4739 24.1294 64.5246 24.1248 62.5781 24.1276C62.5488 18.0513 62.5726 11.9722 62.5653 5.89505C60.3785 5.89414 58.1926 5.88956 56.0076 5.89778C55.9793 4.18871 56.004 2.47965 55.9948 0.770583ZM82.3369 0.770583C87.1636 0.768756 91.9903 0.768756 96.8188 0.770583L96.8179 5.88225C93.9405 5.9124 91.0623 5.88591 88.1849 5.89595C88.1849 7.22046 88.1821 8.54406 88.1858 9.8704C90.5799 9.90237 92.975 9.87768 95.3701 9.88681C95.3628 11.6087 95.3829 13.3314 95.36 15.0533C94.8375 15.1209 94.2913 15.0624 93.7596 15.0816C91.9008 15.0816 90.0428 15.0798 88.1839 15.0816C88.1876 16.3879 88.1785 17.6913 88.1894 18.9976C91.065 18.9948 93.9423 18.9976 96.8188 18.9958C96.8179 20.7058 96.8197 22.4176 96.817 24.1284H82.336L82.3369 0.770583ZM106.815 0.776967C108.958 0.778794 111.099 0.775139 113.241 0.778793C116.174 8.56232 119.089 16.3486 122.025 24.1284C119.874 24.1394 117.724 24.1294 115.574 24.1339C115.076 22.7981 114.581 21.4609 114.091 20.1221C111.326 20.112 108.56 20.1157 105.795 20.1202C105.266 21.4593 104.729 22.7948 104.202 24.1339C102.068 24.1148 99.9328 24.133 97.7999 24.1221C100.807 16.3413 103.805 8.55775 106.815 0.776967ZM119.035 0.774235C125.367 0.763274 131.699 0.770583 138.031 0.770583C138.027 2.47874 138.036 4.18597 138.027 5.89321C135.838 5.89138 133.648 5.8987 131.459 5.89048C131.438 11.9686 131.479 18.0494 131.462 24.1276C129.511 24.1239 127.562 24.1303 125.614 24.1239C125.595 18.0476 125.611 11.9704 125.605 5.89413C123.529 5.89413 121.451 5.89139 119.376 5.89595C119.258 5.89499 119.141 5.87841 119.028 5.84663C119.045 4.15674 119.027 2.46412 119.035 0.774235Z" fill="#FF3131"/>
<path d="M108.863 6.29443C110.62 9.17637 112.398 12.0465 114.15 14.9311C113.217 14.9083 112.283 14.8443 111.352 14.8334C111.537 15.7925 111.736 16.748 111.93 17.7044C111.434 17.8003 110.943 17.9364 110.44 17.9894C110.263 17.0339 110.059 16.083 109.867 15.1303C109.013 15.4929 108.189 15.9222 107.338 16.2931C107.563 14.552 107.864 12.8201 108.118 11.0818C108.371 9.48694 108.596 7.88841 108.863 6.29443Z" fill="white"/>
</svg>
