<svg width="152" height="25" viewBox="0 0 152 25" fill="none" xmlns="http://www.w3.org/2000/svg">
<path d="M0.0957031 24.202V0.0424805H10.1471C14.4717 0.0424805 17.2838 3.19336 17.2838 7.38405C17.2838 11.5747 14.4717 14.7335 10.1471 14.7335H3.93979V24.1862L0.0957031 24.202ZM3.93979 3.30365V11.5039H9.97375C11.8958 11.5039 13.4397 9.55029 13.4397 7.38405C13.4397 5.21781 11.8643 3.30365 9.97375 3.30365H3.93979ZM36.6776 19.129C37.9143 18.8848 39.1195 18.6485 40.3169 18.4437C40.561 19.8143 41.3803 21.4607 44.1609 21.4607C44.7832 21.4607 47.8317 21.2243 47.8317 19.0266C47.8317 14.8753 37.1975 19.1605 37.1975 11.7165C37.1975 8.76257 40.1436 6.53331 43.8537 6.53331C47.5639 6.53331 50.7148 8.10876 51.2347 11.9529C49.998 12.1655 48.7928 12.4019 47.5954 12.646C47.3512 10.4798 46.02 9.69209 43.9561 9.69209C42.1365 9.69209 40.8998 10.6531 40.8998 11.7165C40.8998 13.1266 42.2074 13.4968 44.2633 13.7095C48.202 14.1191 51.5025 14.9777 51.5025 19.0266C51.5025 22.6659 48.3516 24.5879 44.1609 24.5879C39.7024 24.5879 37.1581 22.2248 36.6776 19.129ZM52.4714 9.67633V6.84052H55.4569V1.7991H59.1671V6.80902H62.767V9.67633H59.1671V19.5229C59.1671 20.8935 59.5767 21.311 60.7425 21.311C61.2545 21.311 62.3889 21.2401 62.3889 21.2401V24.2256C62.3889 24.2256 61.0576 24.3595 59.7421 24.3595C56.4809 24.3595 55.4175 22.6107 55.4175 19.2866V9.67633H52.4714ZM75.6778 14.5287C75.6778 11.882 75.0948 9.6527 72.3142 9.6527C69.6674 9.6527 68.9506 11.882 68.9506 14.5287V24.202H65.2404V6.87204H68.604L68.9506 8.75469C69.4626 7.79367 71.5264 6.52544 73.5509 6.52544C74.5196 6.46862 75.485 6.6824 76.3392 7.14287C77.1933 7.60333 77.9025 8.29232 78.3875 9.1328C79.317 7.55735 81.5384 6.52544 83.6023 6.52544C88.3286 6.52544 89.778 9.4085 89.778 14.5602V24.2335H86.123V14.5287C86.123 11.9135 85.4061 9.62118 82.7594 9.62118C79.9787 9.62118 79.3958 11.8504 79.3958 14.5287V24.202H75.6935L75.6778 14.5287ZM96.5052 12.8272C95.3078 12.6224 94.0711 12.3467 92.8344 12.1419C93.2125 8.29782 96.3712 6.50968 100.011 6.50968C104.918 6.50968 107.455 8.87285 107.455 13.6465V19.6883C107.455 20.7202 107.659 21.3031 108.384 21.3031C108.686 21.2988 108.986 21.251 109.274 21.1613V24.1862C108.558 24.3803 107.818 24.4731 107.076 24.4619C106.354 24.5082 105.641 24.2787 105.081 23.8196C104.521 23.3605 104.156 22.7061 104.059 21.9885C103.394 22.7815 102.565 23.422 101.63 23.8665C100.695 24.3109 99.6752 24.5489 98.6399 24.5643C94.6225 24.5643 92.22 22.3272 92.22 19.0502C92.22 16.3405 94.7249 13.867 99.3095 13.867H103.776V12.8272C103.776 11.4881 103.224 9.67633 100.034 9.67633C97.9073 9.67633 96.5997 10.7398 96.5288 12.8272M103.776 17.4906V16.6319H99.6876C96.6391 16.6319 96.0168 18.2074 96.0168 19.0345C96.0168 20.2003 96.8045 21.3977 99.0731 21.3977C102.09 21.3977 103.799 19.3417 103.799 17.459M26.3111 24.5801C24.5241 24.5801 22.7773 24.0502 21.2915 23.0574C19.8056 22.0646 18.6476 20.6535 17.9637 19.0025C17.2799 17.3515 17.1009 15.5348 17.4496 13.7822C17.7982 12.0295 18.6587 10.4196 19.9223 9.15603C21.1859 7.89244 22.7958 7.03191 24.5485 6.68329C26.3011 6.33467 28.1178 6.51359 29.7688 7.19745C31.4197 7.8813 32.8308 9.03935 33.8236 10.5252C34.8164 12.011 35.3463 13.7579 35.3463 15.5449C35.3442 17.9405 34.3916 20.2374 32.6977 21.9314C31.0037 23.6254 28.7068 24.578 26.3111 24.5801ZM26.3111 9.95991C25.2046 9.95991 24.123 10.2881 23.2031 10.903C22.2832 11.5179 21.5664 12.3919 21.1433 13.4143C20.7202 14.4367 20.6099 15.5616 20.8263 16.6468C21.0428 17.7319 21.5762 18.7284 22.3592 19.5103C23.1422 20.2921 24.1394 20.8242 25.2249 21.0391C26.3103 21.254 27.4351 21.1421 28.4569 20.7176C29.4787 20.2931 30.3516 19.575 30.9652 18.6542C31.5788 17.7335 31.9055 16.6514 31.904 15.5449C31.9019 14.0629 31.3117 12.6424 30.2631 11.5952C29.2145 10.5481 27.7931 9.95991 26.3111 9.95991ZM132.339 18.168C133.473 18.4752 134.599 18.8139 135.734 19.1605C134.946 21.6655 132.583 24.5485 127.857 24.5485C123.13 24.5485 119.688 20.8777 119.688 15.5212C119.688 10.1647 122.839 6.49393 127.683 6.49393C132.528 6.49393 135.513 9.72359 135.513 14.9698C135.524 15.5222 135.5 16.0746 135.442 16.6241H123.516C123.587 19.1605 125.336 21.4213 127.841 21.4213C128.844 21.4494 129.828 21.1459 130.642 20.5577C131.455 19.9696 132.051 19.1296 132.339 18.168ZM131.551 13.8434C131.449 11.2675 130.212 9.62118 127.668 9.62118C125.123 9.62118 123.792 11.6771 123.689 13.8434H131.551ZM137.104 19.129C138.341 18.8927 139.546 18.6485 140.744 18.4437C140.988 19.8143 141.807 21.4607 144.588 21.4607C145.202 21.4607 148.259 21.2243 148.259 19.0266C148.259 14.8753 137.624 19.1684 137.624 11.7165C137.624 8.77045 140.57 6.53331 144.281 6.53331C147.991 6.53331 151.142 8.10876 151.654 11.9607C150.425 12.1655 149.22 12.4019 148.022 12.646C147.778 10.4798 146.447 9.69209 144.383 9.69209C142.563 9.69209 141.327 10.6531 141.327 11.7165C141.327 13.1266 142.634 13.5047 144.69 13.7095C148.629 14.1191 151.929 14.9777 151.929 19.0266C151.929 22.6659 148.778 24.5879 144.588 24.5879C140.129 24.5879 137.585 22.2248 137.104 19.129ZM108.723 9.67633V6.84052H111.708V1.7991H115.418V6.80902H119.018V9.67633H115.418V19.5229C115.418 20.8935 115.828 21.311 117.033 21.311C117.545 21.311 118.68 21.2401 118.68 21.2401V24.2256C118.68 24.2256 117.356 24.3595 116.033 24.3595C112.78 24.3595 111.708 22.6107 111.708 19.2866V9.67633H108.723Z" fill="black"/>
</svg>
