<svg width="153" height="25" viewBox="0 0 153 25" fill="none" xmlns="http://www.w3.org/2000/svg">
<path d="M81.2339 0.0424805H98.1351V4.17784H85.7993V10.0501H97.7919V14.0448H85.7993V20.0163H98.1351V24.1516H81.2339V0.0424805ZM144.811 24.5859C149.993 24.5859 152.912 22.1046 152.912 18.6971C152.912 16.2696 151.184 14.4584 147.565 13.6726L143.74 12.891C141.519 12.4775 140.82 12.064 140.82 11.2369C140.82 10.1658 141.891 9.50832 143.864 9.50832C146.002 9.50832 147.586 10.0831 147.999 12.0598H152.482C152.238 8.33802 149.563 5.88161 144.137 5.88161C139.447 5.88161 136.156 7.81696 136.156 11.5677C136.156 14.1606 137.967 15.8478 141.875 16.6708L146.151 17.6591C147.838 17.99 148.289 18.4448 148.289 19.1437C148.289 20.2561 147.015 20.955 144.956 20.955C142.367 20.955 140.887 20.3802 140.312 18.4035H135.804C136.462 22.117 139.216 24.5859 144.811 24.5859ZM134.502 24.1351H129.651C126.607 24.1351 124.92 22.2411 124.92 19.8509V10.3809H121.508V6.34477H124.936V1.27895H129.444V6.34477H134.502V10.3809H129.444V18.6971C129.444 19.6441 130.101 20.099 131.131 20.099H134.502V24.1351ZM115.065 6.35304V7.95756C113.478 6.61599 111.466 5.88304 109.387 5.88988C108.143 5.86371 106.906 6.08616 105.749 6.54418C104.592 7.00221 103.538 7.68659 102.649 8.55723C101.76 9.42786 101.054 10.4672 100.571 11.6144C100.089 12.7616 99.8408 13.9935 99.8408 15.2379C99.8408 16.4823 100.089 17.7142 100.571 18.8613C101.054 20.0085 101.76 21.0479 102.649 21.9185C103.538 22.7891 104.592 23.4735 105.749 23.9316C106.906 24.3896 108.143 24.612 109.387 24.5859C111.466 24.5949 113.479 23.8617 115.065 22.5182V24.1268H119.56V6.34477L115.065 6.35304ZM109.76 20.6821C108.681 20.6944 107.624 20.3858 106.721 19.7956C105.819 19.2054 105.112 18.3603 104.691 17.3675C104.27 16.3747 104.154 15.2792 104.357 14.2202C104.56 13.1611 105.073 12.1864 105.832 11.4198C106.59 10.6533 107.559 10.1295 108.616 9.91503C109.673 9.70059 110.77 9.80519 111.767 10.2155C112.764 10.6259 113.617 11.3234 114.217 12.2195C114.816 13.1157 115.136 14.1699 115.136 15.2482C115.142 15.9591 115.008 16.6641 114.74 17.3227C114.472 17.9812 114.076 18.5801 113.576 19.0847C113.075 19.5892 112.479 19.9895 111.823 20.2623C111.166 20.5351 110.462 20.6749 109.751 20.6738L109.76 20.6821Z" fill="#05C167"/>
<path d="M71.1766 9.68201C68.9146 9.68201 67.3101 11.4519 67.3101 14.1689V24.1351H63.8571V6.59289H67.2687V8.73501C67.6895 8.02504 68.2926 7.44052 69.0153 7.04206C69.7381 6.6436 70.5543 6.44568 71.3793 6.46883H72.6199V9.68201H71.1766ZM61.4709 15.364C61.4709 10.1328 57.7491 6.22071 52.7122 6.22071C51.5222 6.22879 50.3454 6.47211 49.2497 6.93666C48.154 7.40121 47.161 8.07783 46.3277 8.92758C45.4945 9.77734 44.8375 10.7835 44.3946 11.8881C43.9516 12.9927 43.7315 14.174 43.7468 15.364C43.7468 20.5911 47.7787 24.5445 53.0389 24.5445C54.5083 24.5723 55.9628 24.2464 57.2798 23.5943C58.5969 22.9423 59.7379 21.9832 60.6067 20.7979L58.1006 18.9618C57.5257 19.7642 56.7649 20.4154 55.8834 20.8598C55.002 21.3041 54.026 21.5283 53.0389 21.5133C51.6331 21.5067 50.2763 20.9966 49.2142 20.0756C48.1521 19.1546 47.455 17.8836 47.2494 16.493H61.4792L61.4709 15.364ZM47.3239 13.7553C47.94 11.0798 50.078 9.26847 52.6709 9.26847C55.2638 9.26847 57.3976 11.0798 57.9766 13.7553H47.3239ZM32.8087 6.22071C31.6548 6.22168 30.5124 6.45132 29.4477 6.89637C28.383 7.34141 27.4171 7.99303 26.6057 8.81358V0.0424805H23.1527V24.1351H26.5643V21.9103C28.2171 23.5823 30.466 24.5297 32.817 24.5445C34.0365 24.5704 35.249 24.3526 36.3832 23.9038C37.5175 23.455 38.5507 22.7843 39.4224 21.931C40.294 21.0776 40.9865 20.0589 41.4593 18.9344C41.9321 17.81 42.1756 16.6024 42.1756 15.3826C42.1756 14.1628 41.9321 12.9553 41.4593 11.8308C40.9865 10.7063 40.294 9.68757 39.4224 8.83425C38.5507 7.98092 37.5175 7.3102 36.3832 6.86141C35.249 6.41263 34.0365 6.1948 32.817 6.22071H32.8087ZM32.5606 21.4595C31.357 21.4653 30.1789 21.1133 29.1756 20.4484C28.1724 19.7834 27.3892 18.8355 26.9256 17.7248C26.462 16.614 26.3388 15.3906 26.5716 14.2097C26.8044 13.0289 27.3827 11.9438 28.2332 11.0921C29.0837 10.2405 30.168 9.66064 31.3485 9.42623C32.5291 9.19181 33.7527 9.31337 34.864 9.77547C35.9754 10.2376 36.9244 11.0194 37.5907 12.0217C38.2571 13.0241 38.6106 14.2018 38.6065 15.4054C38.6076 16.1992 38.4519 16.9855 38.1484 17.7191C37.8448 18.4526 37.3994 19.119 36.8376 19.68C36.2759 20.2409 35.6089 20.6854 34.8749 20.988C34.141 21.2905 33.3545 21.4452 32.5606 21.443V21.4595ZM10.4364 21.2941C13.7695 21.2941 16.3582 18.7385 16.3582 14.9091V0.0424805H19.9353V24.1351H16.3996V21.8565C15.5735 22.7103 14.5829 23.3876 13.4875 23.8474C12.3922 24.3073 11.2149 24.5402 10.027 24.5321C4.88674 24.5321 0.929199 20.7855 0.929199 15.1035V0.0424805H4.57246V14.9298C4.57246 18.7798 7.05367 21.2941 10.4364 21.2941Z" fill="black"/>
</svg>
