<svg width="50" height="49" viewBox="0 0 50 49" fill="none" xmlns="http://www.w3.org/2000/svg">
<path d="M12.5 42.4297V45.7797C12.5 46.4428 12.7634 47.0787 13.2322 47.5475C13.7011 48.0164 14.337 48.2797 15 48.2797H35C35.663 48.2797 36.2989 48.0164 36.7678 47.5475C37.2366 47.0787 37.5 46.4428 37.5 45.7797V42.4297C41.3004 40.2356 44.4563 37.0797 46.6505 33.2794C48.8447 29.479 49.9999 25.1681 50 20.7797C50 20.1167 49.7366 19.4808 49.2678 19.012C48.7989 18.5431 48.163 18.2797 47.5 18.2797C47.4542 16.7491 47.0164 15.2557 46.2286 13.9426C45.4407 12.6295 44.3291 11.5405 43 10.7797C42.6813 8.6021 41.5884 6.61228 39.9216 5.17507C38.2548 3.73787 36.1258 2.94959 33.925 2.95475C33.081 2.95329 32.2405 3.06256 31.425 3.27975C29.7042 1.63689 27.4166 0.720215 25.0375 0.720215C22.6584 0.720215 20.3708 1.63689 18.65 3.27975C17.8345 3.06256 16.994 2.95329 16.15 2.95475C13.9406 2.93751 11.7995 3.72032 10.1223 5.15862C8.44504 6.59691 7.34489 8.59354 7.025 10.7797C5.69129 11.5373 4.57467 12.625 3.78228 13.9384C2.9899 15.2517 2.54835 16.7466 2.5 18.2797C1.83696 18.2797 1.20107 18.5431 0.732233 19.012C0.263392 19.4808 0 20.1167 0 20.7797C0.00011148 25.1681 1.15532 29.479 3.34952 33.2794C5.54373 37.0797 8.69961 40.2356 12.5 42.4297ZM10.275 14.9297L12.35 14.2797L11.95 12.0297C11.9565 11.4913 12.0691 10.9594 12.2811 10.4645C12.4932 9.96956 12.8008 9.52125 13.1861 9.14516C13.5715 8.76908 14.0272 8.47259 14.5271 8.27263C15.0271 8.07266 15.5616 7.97314 16.1 7.97975C16.822 7.97562 17.5341 8.14722 18.175 8.47975L20.2 9.60475L21.45 7.67975C21.8409 7.09709 22.3693 6.61961 22.9884 6.28945C23.6075 5.95928 24.2984 5.78658 25 5.78658C25.7016 5.78658 26.3925 5.95928 27.0116 6.28945C27.6307 6.61961 28.1591 7.09709 28.55 7.67975L29.8 9.60475L31.825 8.47975C32.4659 8.14722 33.178 7.97562 33.9 7.97975C34.9813 7.96615 36.0247 8.37772 36.8056 9.12585C37.5865 9.87398 38.0423 10.8988 38.075 11.9797L37.675 14.1047L39.725 14.8047C40.4812 15.0414 41.1495 15.4987 41.6439 16.1179C42.1384 16.7371 42.4365 17.4899 42.5 18.2797H7.5C7.5635 17.4899 7.86162 16.7371 8.35608 16.1179C8.85054 15.4987 9.51878 15.0414 10.275 14.8047V14.9297ZM44.85 23.2797C44.4329 26.5528 43.2125 29.6718 41.2976 32.3588C39.3827 35.0458 36.8327 37.2173 33.875 38.6797C33.4589 38.8894 33.1097 39.2112 32.8667 39.6087C32.6238 40.0063 32.4968 40.4638 32.5 40.9297V43.2797H17.5V40.9297C17.5032 40.4638 17.3762 40.0063 17.1333 39.6087C16.8903 39.2112 16.5411 38.8894 16.125 38.6797C13.1673 37.2173 10.6173 35.0458 8.7024 32.3588C6.78748 29.6718 5.56709 26.5528 5.15 23.2797H44.85Z" fill="#474747"/>
</svg>
