<svg width="50" height="51" viewBox="0 0 50 51" fill="none" xmlns="http://www.w3.org/2000/svg">
<path d="M39 23.5H11V39.5H39V23.5Z" stroke="#AD343E" stroke-width="2.5" stroke-linecap="round" stroke-linejoin="round"/>
<path d="M32 29.5H18" stroke="#AD343E" stroke-width="2.5" stroke-linecap="round" stroke-linejoin="round"/>
<path d="M30 13.5C31.1046 13.5 32 12.6046 32 11.5C32 10.3954 31.1046 9.5 30 9.5C28.8954 9.5 28 10.3954 28 11.5C28 12.6046 28.8954 13.5 30 13.5Z" fill="#474747"/>
<path d="M38 13.5C39.1046 13.5 40 12.6046 40 11.5C40 10.3954 39.1046 9.5 38 9.5C36.8954 9.5 36 10.3954 36 11.5C36 12.6046 36.8954 13.5 38 13.5Z" fill="#474747"/>
<path d="M41 5.5H9C6.79086 5.5 5 7.29086 5 9.5V41.5C5 43.7091 6.79086 45.5 9 45.5H41C43.2091 45.5 45 43.7091 45 41.5V9.5C45 7.29086 43.2091 5.5 41 5.5Z" stroke="#474747" stroke-width="2.5" stroke-linecap="round" stroke-linejoin="round"/>
<path d="M11 11.5H17" stroke="#474747" stroke-width="2.5" stroke-linecap="round" stroke-linejoin="round"/>
<path d="M5 17.5H45" stroke="#474747" stroke-width="2.5" stroke-linecap="round" stroke-linejoin="round"/>
</svg>
