<svg width="50" height="51" viewBox="0 0 50 51" fill="none" xmlns="http://www.w3.org/2000/svg">
<path d="M27.8662 7.94311L27.8245 7.81446L28.0366 8.08846C28.2187 8.29229 28.3691 8.24718 28.4978 8.08846C28.4978 8.08846 29.6222 6.79699 28.7417 5.29333C28.2572 4.29757 26.3459 1.92847 25.3401 1.18667C23.5223 0.0321929 22.3495 0.919352 22.3495 0.919352C22.2041 1.02795 22.0972 1.18667 22.2041 1.33369L22.4881 1.62607C19.0581 2.31274 18.5536 4.98424 18.3297 6.16712L18.2929 6.3626L17.8318 9.5704C17.6848 10.6898 18.2929 11.2963 19.3622 11.2963H22.8507C24.067 11.313 26.5998 11.3447 27.8662 7.94311Z" fill="#474747"/>
<path d="M16.6422 6.1253L16.2696 8.71827L4.46085 19.6415C4.01267 20.0158 3.67769 20.5076 3.4935 21.0616C3.42238 21.2684 3.37146 21.4816 3.34146 21.6982V22.5503C3.79423 22.587 4.31717 22.5503 4.88689 22.4233L42.2511 11.7039C42.3754 11.6682 42.5063 11.6618 42.6335 11.6853C42.7606 11.7088 42.8806 11.7615 42.9839 11.8393C43.0873 11.917 43.1711 12.0177 43.2289 12.1333C43.2868 12.249 43.3169 12.3765 43.3171 12.5058V20.6022C43.3179 20.7815 43.2608 20.9563 43.1542 21.1005C43.0476 21.2447 42.8973 21.3506 42.7256 21.4025C35.5749 23.5577 7.14739 32.1236 6.44903 32.3124C5.65877 32.5295 3.90951 32.857 3.34146 32.7835V38.0212C3.85104 38.0914 4.38066 38.0714 4.88689 37.936L42.2495 27.118C42.3739 27.082 42.5049 27.0755 42.6323 27.0988C42.7597 27.1221 42.8799 27.1748 42.9834 27.2526C43.087 27.3303 43.171 27.4311 43.2289 27.547C43.2868 27.6628 43.317 27.7905 43.3171 27.92V35.6922L44.5768 35.3314L44.5885 35.328L44.6587 35.3046C45.0677 35.1699 45.4614 34.9924 45.8332 34.775C46.59 34.3239 46.6585 34.0182 46.6585 33.9797V12.2201C46.6585 11.8559 46.5082 11.211 46.1122 10.5878C45.7413 10.0031 45.215 9.53025 44.525 9.30136L30.7298 6.06682C30.6688 5.51645 30.4948 4.98461 30.2185 4.50469C29.8794 3.83472 29.2111 2.91749 28.5662 2.12891L45.352 6.06348C45.3914 6.07317 45.4304 6.08432 45.469 6.09689C47.0812 6.59811 48.2157 7.66738 48.9324 8.7968C49.6341 9.89948 50 11.1575 50 12.2201V33.9797C50 35.9512 48.4245 37.1207 47.539 37.647C46.919 38.0122 46.2592 38.3054 45.5726 38.5208L45.5291 38.5342L45.5141 38.5375L45.5091 38.5392C45.5091 38.5392 45.2651 38.6093 45.5057 38.5392L4.7265 50.2443C4.7027 50.251 4.67875 50.2571 4.65466 50.2627C3.46343 50.5467 2.11013 50.4715 1.11271 49.4524C0.218866 48.5402 0 47.2387 0 46.0775V21.6264L0.00167081 21.5361V21.5111L0.00668304 21.4743C0.0166485 21.3253 0.035056 21.1769 0.0618172 21.0299C0.108598 20.7592 0.190464 20.3933 0.334147 19.974C0.701601 18.8887 1.35015 17.9202 2.21372 17.1672L17.9119 2.6485C17.8761 2.69978 17.841 2.75158 17.8067 2.80388C17.0448 3.98342 16.8126 5.21475 16.699 5.81788L16.6923 5.85798C16.6765 5.94726 16.6598 6.03637 16.6422 6.1253Z" fill="#474747"/>
</svg>
