<svg width="50" height="51" viewBox="0 0 50 51" fill="none" xmlns="http://www.w3.org/2000/svg">
<path fill-rule="evenodd" clip-rule="evenodd" d="M39.7088 0.5C40.4116 0.500303 41.1065 0.648777 41.7481 0.935735C42.3897 1.22269 42.9635 1.64169 43.4323 2.16539C43.901 2.68909 44.2541 3.30572 44.4684 3.97507C44.6828 4.64442 44.7536 5.35143 44.6763 6.05L40.2338 46.05C40.0984 47.2734 39.5165 48.4039 38.5994 49.225C37.6824 50.0461 36.4947 50.5001 35.2638 50.5H14.7388C13.5079 50.5001 12.3202 50.0461 11.4032 49.225C10.4861 48.4039 9.9042 47.2734 9.7688 46.05L5.3238 6.05C5.24646 5.35122 5.31736 4.64399 5.53186 3.97447C5.74637 3.30495 6.09965 2.6882 6.56865 2.16446C7.03766 1.64072 7.61184 1.22177 8.25373 0.93497C8.89561 0.648167 9.59076 0.499952 10.2938 0.5H39.7088ZM39.7088 5.5H10.2938L11.3563 15.0575C12.2538 14.8865 13.1616 14.7746 14.0738 14.7225C17.0713 14.5475 21.2138 14.9075 25.9863 16.9525C29.9638 18.6575 33.3213 18.9225 35.6363 18.785C36.5248 18.7378 37.4074 18.6123 38.2738 18.41L39.7088 5.5ZM37.6963 23.6C37.1663 23.675 36.5738 23.74 35.9288 23.775C32.9313 23.9525 28.7888 23.5925 24.0163 21.55C20.0388 19.8425 16.6813 19.5775 14.3663 19.715C13.5403 19.7605 12.7193 19.8726 11.9113 20.05L14.7388 45.5H35.2638L37.6963 23.6ZM22.5013 28C22.5013 28.663 22.2379 29.2989 21.7691 29.7678C21.3002 30.2366 20.6643 30.5 20.0013 30.5C19.3383 30.5 18.7024 30.2366 18.2335 29.7678C17.7647 29.2989 17.5013 28.663 17.5013 28C17.5013 27.337 17.7647 26.7011 18.2335 26.2322C18.7024 25.7634 19.3383 25.5 20.0013 25.5C20.6643 25.5 21.3002 25.7634 21.7691 26.2322C22.2379 26.7011 22.5013 27.337 22.5013 28ZM27.5013 38C28.1643 38 28.8002 37.7366 29.2691 37.2678C29.7379 36.7989 30.0013 36.163 30.0013 35.5C30.0013 34.837 29.7379 34.2011 29.2691 33.7322C28.8002 33.2634 28.1643 33 27.5013 33C26.8383 33 26.2024 33.2634 25.7335 33.7322C25.2647 34.2011 25.0013 34.837 25.0013 35.5C25.0013 36.163 25.2647 36.7989 25.7335 37.2678C26.2024 37.7366 26.8383 38 27.5013 38Z" fill="#474747"/>
</svg>
