<svg width="50" height="51" viewBox="0 0 50 51" fill="none" xmlns="http://www.w3.org/2000/svg">
<path d="M43 29.5V47.5H7V29.5" stroke="#474747" stroke-width="2.5" stroke-linecap="round" stroke-linejoin="round"/>
<path d="M18 3.5H32" stroke="#474747" stroke-width="2.5" stroke-linecap="round" stroke-linejoin="round"/>
<path d="M25 29.5L33.5 21" stroke="#AD343E" stroke-width="2.5" stroke-linecap="round" stroke-linejoin="round"/>
<path d="M25 3.5V6.5" stroke="#474747" stroke-width="2.5" stroke-linecap="round" stroke-linejoin="round"/>
<path d="M25 47.5C34.9411 47.5 43 39.4411 43 29.5C43 19.5589 34.9411 11.5 25 11.5C15.0589 11.5 7 19.5589 7 29.5C7 39.4411 15.0589 47.5 25 47.5Z" stroke="#474747" stroke-width="2.5" stroke-linecap="round" stroke-linejoin="round"/>
<path d="M25 17.5V19.5" stroke="#474747" stroke-width="2.5" stroke-linecap="round" stroke-linejoin="round"/>
<path d="M37 29.5H35" stroke="#474747" stroke-width="2.5" stroke-linecap="round" stroke-linejoin="round"/>
<path d="M33.4848 37.9848L32.0708 36.5708" stroke="#474747" stroke-width="2.5" stroke-linecap="round" stroke-linejoin="round"/>
<path d="M25 41.5V39.5" stroke="#474747" stroke-width="2.5" stroke-linecap="round" stroke-linejoin="round"/>
<path d="M16.5151 37.9848L17.9291 36.5708" stroke="#474747" stroke-width="2.5" stroke-linecap="round" stroke-linejoin="round"/>
<path d="M13 29.5H15" stroke="#474747" stroke-width="2.5" stroke-linecap="round" stroke-linejoin="round"/>
<path d="M16.5151 21.0151L17.9291 22.4291" stroke="#474747" stroke-width="2.5" stroke-linecap="round" stroke-linejoin="round"/>
</svg>
